<?xml version="1.0" standalone="no"?>
<!DOCTYPE svg PUBLIC "-//W3C//DTD SVG 1.1//EN" "http://www.w3.org/Graphics/SVG/1.1/DTD/svg11.dtd" >
<svg xmlns="http://www.w3.org/2000/svg">
<metadata></metadata>
<defs>
<font id="lodgecoderegular" horiz-adv-x="716" >
<font-face units-per-em="2048" ascent="1638" descent="-410" />
<missing-glyph horiz-adv-x="614" />
<glyph horiz-adv-x="2048" />
<glyph horiz-adv-x="2048" />
<glyph unicode="&#xd;" horiz-adv-x="2048" />
<glyph unicode=" "  horiz-adv-x="614" />
<glyph unicode="&#x09;" horiz-adv-x="614" />
<glyph unicode="&#xa0;" horiz-adv-x="614" />
<glyph unicode="!" horiz-adv-x="536" d="M164 76q0 32 23 55t55 23t53.5 -22.5t21.5 -55.5q0 -31 -21.5 -53.5t-53.5 -22.5t-55 22.5t-23 53.5zM203 319l24 926q0 24 19 29l102 20q17 4 19.5 -3t-0.5 -31l-56 -934q-2 -27 -22 -27h-60h-6.5h-6.5t-5 1t-4.5 3t-2.5 6t-1 10z" />
<glyph unicode="&#x22;" horiz-adv-x="593" d="M158 1227q-3 39 8 47q17 10 43 10t43 -10q11 -8 8 -47l-22 -303q-1 -11 -6 -16t-9.5 -6t-13.5 -1t-13.5 1t-9.5 6t-6 16zM334 1227q-3 39 8 47q17 10 43 10t43 -10q11 -8 8 -47l-22 -303q-1 -11 -6 -16t-9.5 -6t-13.5 -1t-13.5 1t-9.5 6t-6 16z" />
<glyph unicode="#" horiz-adv-x="1628" d="M152 366.5q-1 2.5 1 17.5q0 8 1 13l6 82q0 4 0.5 8.5t1 5.5t0 3t1.5 2t3 0.5t5 1t7 0.5l363 10h10h7.5h5t4 1t2 2t1.5 4t0.5 5t0.5 7.5t1 9.5l23 188q1 17 0.5 17.5t-27.5 0.5l-362 -12q-15 0 -16.5 2t-0.5 25l9 84q0 4 0.5 8.5t0 6.5t0 4t1 2.5t2.5 1t3.5 0t6 -0.5h8.5 l369 13q22 0 23.5 1t2.5 23l43 348q1 4 1 9t0.5 7t0.5 4.5t1 3.5t1.5 2t3 1h4h6h7.5h76q32 0 34 -2.5t-3 -36.5l-37 -313q-5 -38 -4.5 -40.5t20.5 -2.5l180 6h15q16 0 19 7q1 4 3 24l2 16l37 309q3 28 5 30.5t28 2.5h74q27 0 29 -2.5t-3 -36.5l-37 -309q-1 -6 -2 -14t-2 -10 t0 -6t1.5 -4.5t4.5 -1.5t6.5 -0.5t11.5 1t15 0.5l297 8q4 0 8.5 0.5t6.5 1t4.5 0t3 -0.5t2 -1.5t1.5 -2.5v-5t-0.5 -6.5t-1.5 -9t-1 -11.5l-4 -59q-1 -6 -1 -13t-0.5 -10t-1 -6.5t-1.5 -4.5t-1.5 -2.5t-3 -1.5t-4.5 -0.5t-7 -0.5h-9l-309 -8h-11t-9 -0.5t-6 -0.5t-4 -1 t-2.5 -1.5t-2 -3.5t-1 -5t-1 -7.5t-0.5 -9.5l-21 -168q-3 -35 -1.5 -37t26.5 -2l305 11h13t9.5 0.5t6 -0.5t4 -1t1.5 -3t0.5 -4.5t-1 -8t-0.5 -10.5l-6 -70v-13q-1 -19 -3.5 -22.5t-13.5 -3.5h-12l-320 -8q-5 0 -10.5 -0.5t-7.5 0t-5 -0.5t-3.5 -1.5t-1.5 -4t-1 -6t-1 -9.5 t-2 -13l-37 -319q-4 -35 -6 -37t-29 -2h-86q-15 0 -16 2t2 33l39 325q1 5 1.5 10.5t1 7.5t0.5 5v3l-2 1q-2 1 -3.5 0.5t-5.5 -0.5h-7l-190 -6h-10t-7.5 0.5t-4.5 -0.5t-3.5 -1t-1.5 -2.5t-1 -3.5t-0.5 -6t-0.5 -8l-39 -317q-4 -38 -6.5 -40.5t-28.5 -2.5h-82q-19 0 -20 2.5 t4 42.5l37 307q3 22 1 23.5t-28 1.5l-352 -12h-10q-9 -1 -10 1.5zM705.5 516.5q1.5 -2.5 12.5 -1.5q5 1 9 1l188 4q22 1 23 2.5t4 26.5l23 174q3 29 2 31t-23 2l-184 -6h-11q-13 0 -15.5 -1.5t-3.5 -11.5q0 -3 -0.5 -5t-0.5 -5l-20 -178q-1 -5 -2 -14q-3 -16 -1.5 -18.5z " />
<glyph unicode="$" horiz-adv-x="1341" d="M156 186q-12 13 2 27l73 57q11 7 23 -8q62 -68 162 -108q10 -5 15.5 -1t6.5 17l58 485q0 2 1.5 9t0.5 10q0 7 -21 14q-134 50 -211.5 124t-77.5 187q0 125 99 207t276 101q12 0 15 34l16 132q3 18 6 18q2 2 6 2h15h55q18 0 12 -35q-5 -44 -8 -72.5t-3.5 -35t-1 -11 t-1.5 -12.5q-5 -14 6 -14q64 0 149 -10q9 -1 14.5 3.5t6.5 9t2 15.5l18 148q0 14 17 14h71q15 0 7 -31l-17 -143q-5 -32 2 -39q3 -6 11 -6q69 -15 161 -62q7 -4 10 -6t4 -4t0 -3.5t-4.5 -6t-5.5 -8.5q-1 -3 -18.5 -31.5t-24.5 -44.5q-7 -12 -22 -4q-6 4 -100 47 q-32 13 -37 -31l-45 -393q-1 -8 3 -14.5t8 -8.5t15 -8q285 -108 285 -325q0 -145 -100 -253.5t-281 -135.5q-20 -3 -23 -25l-18 -147q0 -2 -1 -5q0 -7 -2 -8.5t-9 -1.5h-70q-16 0 -16 10l18 144q0 24 -18 24q-57 0 -146 19q-6 1 -8 -3.5t-4 -17.5l-18 -149q0 -2 -0.5 -7 t-1 -8t-2 -6t-4 -4.5t-7.5 -1.5h-69h-8q-6 -1 -7.5 0.5t-1.5 9.5l23 187q4 30 -10 33q-160 55 -250 161zM309 1008q0 -73 60.5 -129t128.5 -72q7 -4 11 -1t5 5t2 10l41 346v9v8q-3 9 -16 6q-102 -20 -167 -66.5t-65 -115.5zM530 135q-3 -19 11 -22q70 -16 145 -19 q19 0 21 27l57 477q1 8 -3 11.5t-18 6.5q-72 20 -129 31q-12 3 -17 -0.5t-7 -15.5zM610 801q-2 -24 11 -27q22 -5 75.5 -20.5t65.5 -18.5q10 -3 15 6t7 27l47 393q0 2 3 8q0 19 -21 23q-62 12 -125 12q-22 0 -29 -10q-4 -6 -4 -23zM807 129q-3 -18 2.5 -20.5t19.5 2.5 q119 28 178.5 97t59.5 144q0 78 -47 130t-133 89q-15 6 -21.5 3.5t-7.5 -15.5z" />
<glyph unicode="%" horiz-adv-x="1265" d="M152 1075q0 95 66.5 170.5t176.5 75.5q113 0 174.5 -72t61.5 -174q0 -43 -14.5 -86t-42 -80.5t-74.5 -61.5t-105 -24q-64 0 -113 23.5t-76.5 61.5t-40.5 80.5t-13 86.5zM202.5 -88q-1.5 6 6.5 25l706 1437q2 5 3.5 10t2.5 7.5t2 4.5t3.5 3t6.5 1.5t11 0.5h88 q21 0 25 -6.5t-4 -16.5l-707 -1448q-2 -3 -4 -9.5t-4 -8.5t-9.5 -4t-21.5 -2h-88q-15 0 -16.5 6zM274 1075q0 -53 28.5 -91t92.5 -38q58 0 85.5 39.5t27.5 89.5q0 57 -29 96t-84 39q-58 0 -89.5 -38t-31.5 -97zM637 233q0 95 67.5 171.5t176.5 76.5q77 0 132 -36t79 -91 t24 -121q0 -57 -24 -112t-79.5 -96t-131.5 -41q-64 0 -113 23t-76.5 61t-41 80t-13.5 85zM760 233q0 -51 28.5 -89t92.5 -38q59 0 85.5 38.5t26.5 88.5q0 59 -28 98.5t-84 39.5q-57 0 -89 -38.5t-32 -99.5z" />
<glyph unicode="&#x26;" horiz-adv-x="1396" d="M106 397q0 212 220 328q17 9 16.5 16.5t-16.5 16.5q-64 39 -117 107t-53 147q0 134 104.5 218.5t308.5 84.5q113 0 202.5 -37.5t137.5 -83.5q6 -6 9.5 -11t5.5 -7.5t1 -6.5t-2 -5.5t-4.5 -6.5t-5.5 -8l-47 -70q-2 -2 -4 -5.5t-3 -5t-2.5 -3t-3 -1t-4 2t-6 5l-8 8 t-10.5 12.5q-87 104 -270 104q-126 0 -194 -51t-68 -137q0 -73 57 -128.5t154 -87t209.5 -47.5t238.5 -18q237 -3 363 43q13 5 18 5t6.5 -0.5t-2 -9t-4.5 -13.5l-16 -64q-1 -4 -2 -10.5t-1.5 -8.5t-2 -6t-3 -5t-5 -3.5t-7 -4t-10.5 -3.5q-20 -5 -66.5 -14t-60.5 -12 q-25 -6 -22 -35q5 -36 6.5 -74.5t-2.5 -84.5t-14.5 -90.5t-31 -90.5t-49 -85.5t-71.5 -75t-96 -60.5t-125 -39.5t-156 -14.5q-119 0 -214.5 36t-155 96t-91 135.5t-31.5 158.5zM238 412q0 -129 96.5 -218.5t269.5 -89.5q76 0 139.5 15.5t109.5 43.5t82 66t56 82.5t32 93.5 t10 99t-9 100q-174 4 -314 24.5t-214 45.5q-31 10 -62 -2q-33 -13 -62.5 -31.5t-62 -48.5t-52 -76.5t-19.5 -103.5z" />
<glyph unicode="'" horiz-adv-x="417" d="M158 1227q-3 39 8 47q17 10 43 10t43 -10q11 -8 8 -47l-22 -303q-1 -11 -6 -16t-9.5 -6t-13.5 -1t-13.5 1t-9.5 6t-6 16z" />
<glyph unicode="(" horiz-adv-x="524" d="M137 633q0 189 58.5 441t134.5 396q4 8 6 10.5t9 5.5t20 3h34q12 0 16 -8t-1 -17q-73 -162 -103 -393.5t-30 -445.5q0 -222 24.5 -413t89.5 -382q5 -12 0 -20.5t-18 -8.5h-47q-25 0 -33 25q-74 171 -117 384.5t-43 422.5z" />
<glyph unicode=")" horiz-adv-x="524" d="M110.5 1481q4.5 8 16.5 8h35q13 0 20 -3t9 -5.5t6 -10.5q74 -144 132 -396.5t58 -440.5q0 -209 -43 -422t-115 -385q-8 -25 -34 -25h-45q-28 0 -21 29q67 190 91 380.5t24 414.5q0 218 -29.5 447.5t-103.5 391.5q-5 9 -0.5 17z" />
<glyph unicode="*" horiz-adv-x="876" d="M150 983v43q0 10 10 10l215 -18q5 0 8 4.5t0 7.5l-150 133q-11 8 -2 17l31 30q7 7 14 0l127 -155q4 -7 10 5q1 3 1 5l-13 213q0 12 13 12h41q10 0 10 -10l-12 -215q0 -4 5.5 -6.5t8.5 0.5l131 147q7 7 18 0l29 -28q3 -3 3 -8.5t-3 -8.5l-162 -131q-3 -3 -1.5 -8.5 t5.5 -5.5l228 14q5 0 8.5 -4t3.5 -8v-41q0 -5 -3 -8t-7 -2l-223 12q-3 0 -5.5 -2t-3 -4.5t1.5 -3.5l154 -129q10 -10 0 -17l-29 -28q-10 -10 -14 -2l-133 153q-3 3 -7.5 0.5t-4.5 -6.5l6 -215q0 -12 -13 -12h-40q-11 0 -11 10l19 219q0 3 -6 5t-9 -1l-125 -149q-8 -8 -16 0 l-29 28q-7 10 0 17l146 127q3 3 0 6.5t-8 3.5l-205 -6q-12 0 -12 10z" />
<glyph unicode="+" horiz-adv-x="1353" d="M150 598v82q0 6 4 11t8 5h438q4 0 7 2.5t6 7.5t5 7v450q0 13 13 13h94q10 0 10 -11v-450q0 -8 5 -13.5t12 -5.5h434q7 0 12.5 -6t5.5 -14v-80q0 -6 -5 -11t-11 -5h-434q-8 0 -13.5 -6t-5.5 -13v-444q0 -19 -16 -19h-86q-6 0 -10.5 5.5t-4.5 13.5v442q0 21 -16 21h-440 q-12 0 -12 18z" />
<glyph unicode="," horiz-adv-x="501" d="M138 -324.5q-1 9.5 3 29.5q45 287 45 404q0 14 1 22t6.5 11t7.5 3h12h72q17 0 23.5 -6.5t2.5 -25.5q-49 -235 -108 -406q-3 -10 -6 -22.5t-5.5 -14.5t-8.5 -4t-21 -2q-2 0 -12 -1t-10.5 1t-1.5 11.5z" />
<glyph unicode="-" d="M164 621v57q4 31 14 31h348q7 0 16 -4t9 -9v-86q0 -5 -8.5 -9.5t-14.5 -4.5h-346q-5 0 -9.5 6t-6.5 12z" />
<glyph unicode="." horiz-adv-x="503" d="M166 82q0 36 26 62t62 26q35 0 60.5 -26.5t25.5 -61.5q0 -37 -25.5 -62.5t-60.5 -25.5q-37 0 -62.5 25.5t-25.5 62.5z" />
<glyph unicode="/" horiz-adv-x="690" d="M72 -88.5q-1 5.5 6 25.5l414 1437q1 4 2 10t2 7.5t2 4.5t4 3.5t7 1t11 0.5h76q21 0 23.5 -5.5t-3.5 -17.5l-415 -1448q-1 -3 -2.5 -8.5t-2.5 -7t-5 -4.5t-11 -3.5t-18 -0.5h-76q-13 0 -14 5.5z" />
<glyph unicode="0" horiz-adv-x="1382" d="M125 645q0 88 20.5 179t66 179.5t109.5 157t160 110.5t209 42t209 -42t160 -110.5t109.5 -157t66 -179.5t20.5 -179q0 -164 -45 -294.5t-123 -212.5t-179 -124.5t-218 -42.5t-218 42.5t-179 124.5t-123 212.5t-45 294.5zM268 645q0 -137 35.5 -244t95.5 -171.5t134 -97 t157 -32.5t157 32.5t134 97t95.5 171.5t35.5 244q0 107 -23.5 197.5t-64 153.5t-95 107t-115 64.5t-124.5 20.5t-124.5 -20.5t-115 -64.5t-95 -107t-64 -153.5t-23.5 -197.5z" />
<glyph unicode="1" horiz-adv-x="573" d="M168 1155v84q0 8 0.5 11.5t4 7t11.5 4.5q11 3 43.5 11.5t60 16.5t42.5 13q22 5 22 -9v-1276q0 -11 -3 -14.5t-13 -3.5h-100q-10 0 -12.5 3.5t-2.5 14.5v1119q0 19 -16 14l-25 -6q-9 -3 -10.5 -2t-1.5 12z" />
<glyph unicode="2" horiz-adv-x="1163" d="M125 29v75q0 82 24.5 157t66 134t95.5 113.5t113.5 99.5t118.5 87t113 81.5t95.5 78t66 81t24.5 86.5q0 59 -45.5 101t-105.5 59.5t-122 17.5q-116 0 -202.5 -39t-133.5 -88q-12 -12 -16 -14.5t-11 2.5t-20 24l-32 54q-14 21 14 43q158 129 401 129q180 0 291 -82.5 t111 -206.5q0 -69 -37.5 -134t-97.5 -118.5t-133 -107t-147 -109t-136 -113.5t-103.5 -132t-46.5 -154q-1 -11 1 -16.5t4.5 -6t10.5 -0.5h5h618q85 0 127 10q21 3 21 -14v-86q0 -3 0.5 -7.5t0.5 -7t-0.5 -5.5t-2 -4.5l-3.5 -3.5t-6 -3t-10 -2q-50 -8 -121 -8h-768 q-10 0 -13.5 1t-6 7.5t-2.5 20.5z" />
<glyph unicode="3" horiz-adv-x="1142" d="M91.5 148.5q-2.5 7.5 2.5 13.5l37 100q11 28 21 14q126 -172 368 -172q173 0 270 89.5t97 218.5q0 61 -36.5 113.5t-93 85t-110.5 52.5t-104 29q-13 3 -14.5 12t1.5 21l13 72q1 4 1.5 5.5t2 2.5t3 1t4.5 -0.5t5 -0.5q25 -1 56.5 3.5t71 18.5t70.5 35.5t52.5 59.5t21.5 86 q0 74 -70.5 131t-191.5 57q-190 0 -272 -106q-13 -19 -20 -22t-17 9l-53 78q-12 19 6 37q46 46 136.5 84.5t205.5 38.5q74 0 146 -19.5t133 -55.5t98 -95.5t37 -132.5q0 -85 -59 -154.5t-130 -103.5l-5 -2q-5 -1 -7 -3t-2 -6v-2q0 -2 3 -3q7 -2 13 -5q27 -12 54 -27.5 t61.5 -45.5t60 -65t43 -87t17.5 -111q0 -83 -31.5 -158.5t-91 -135.5t-155 -96t-214.5 -36q-251 0 -413 152q-4 4 -11 9.5t-7.5 7z" />
<glyph unicode="4" horiz-adv-x="1263" d="M137 532q6 68 6 105v602v13.5v9t1 7t1.5 4t3 3t4 1t6 1.5t7.5 2l84 23q24 9 24 -27v-594q0 -27 13 -27h596h16.5t8.5 2.5t3.5 3t0 7t-0.5 8.5v577v6v5t0.5 3.5t2.5 3.5t4.5 2l7.5 3l92 29q15 5 20.5 1.5t5.5 -22.5v-1251v-14q1 -15 -1 -17t-14 -2h-11h-82 q-22 0 -23.5 1.5t-1.5 23.5v469q0 6 0.5 13t0 9t0 5t-2 3t-4 0.5t-7.5 0t-11 -0.5h-737h-4q-9 -2 -9 8z" />
<glyph unicode="5" horiz-adv-x="1179" d="M129 166l35 98q11 26 24 6q55 -79 149 -122.5t216 -43.5q174 0 270.5 89t96.5 219q0 97 -48 167t-120 102t-156 32q-87 0 -156 -18.5t-104 -43.5q-16 -12 -39 -12l-96 4q-17 0 -17 27l19 575q0 22 8 27.5t33 5.5h757q23 0 23 -16l-8 -93q-1 -16 -6 -19t-19 -3h-643 q-16 0 -16 -17l-8 -331q0 -24 30 -15q130 48 283 41q178 -8 296 -119.5t118 -275.5q0 -92 -34 -175t-95.5 -146t-155.5 -100.5t-207 -37.5q-132 0 -242 43.5t-184 122.5q-11 11 -4 29z" />
<glyph unicode="6" horiz-adv-x="1327" d="M129 668q0 132 32 241t87 183t129.5 125t157.5 74.5t174 23.5q163 0 279.5 -42.5t164.5 -90.5q9 -9 10.5 -13.5t-4.5 -15.5l-55 -82q-9 -14 -21 -2q-40 50 -136 91.5t-247 37.5q-99 -2 -177 -35t-126.5 -85.5t-80 -123.5t-43.5 -144t-11 -151q2 -17 6 -17q3 2 6 7 q42 77 161.5 126.5t273.5 49.5q211 0 353 -115t142 -280q0 -95 -30 -175t-92 -145t-169.5 -102t-250.5 -37q-115 0 -211.5 45t-168.5 130.5t-112.5 219.5t-40.5 302zM303 436q0 -161 103 -253.5t299 -92.5q173 0 270.5 95.5t97.5 226.5q0 59 -23.5 109t-62 85t-87.5 59.5 t-100.5 36t-101.5 11.5q-61 0 -128.5 -19t-128 -53t-99.5 -88t-39 -117z" />
<glyph unicode="7" horiz-adv-x="1038" d="M98 1257q-3 13 3.5 16t25.5 3h821q10 0 13.5 -0.5t7 -4t4.5 -11.5l8 -76q1 -6 1.5 -9.5t-0.5 -6.5t-2.5 -5t-5.5 -8t-7 -12l-668 -1123q-7 -12 -13 -17t-8.5 -5h-15.5l-98 2h-5h-5.5t-4 0.5t-3.5 1.5t-2 3t0 5t3 7l5 10l649 1089l6.5 13t2.5 8t-0.5 5t-5 2.5t-7 0.5 h-10.5h-13h-629q-26 0 -32 26z" />
<glyph unicode="8" horiz-adv-x="1378" d="M125 381q0 55 20 105t52.5 85.5t63 59t61.5 39.5q4 2 9.5 4t7 3t3 3t2.5 6q0 6 -3.5 9t-11 5.5t-12.5 6.5q-43 24 -77 61.5t-56 102.5t-10 141q11 65 49 118t91 87t119.5 56.5t130 32t126.5 9.5q73 0 139.5 -8.5t137 -32.5t121.5 -61.5t83.5 -101t32.5 -146.5 q0 -88 -42.5 -156.5t-100.5 -103.5q-4 -2 -9.5 -4.5t-7.5 -3.5t-4 -4t-2 -7t1.5 -6t3.5 -3t7.5 -3t10.5 -4q32 -17 61 -38.5t61 -56.5t51 -85t19 -109q0 -130 -73 -223.5t-198.5 -140t-291.5 -46.5t-292 46.5t-199.5 140t-73.5 223.5zM256 391q-6 -100 53.5 -167t156 -94.5 t224.5 -27.5q420 0 436 275q5 78 -58 138t-162 91t-216 35q-77 2 -150 -12t-136 -43t-103.5 -79.5t-44.5 -115.5zM305 977q-1 -133 91.5 -186.5t295.5 -53.5q181 0 278 61t97 167q0 53 -22.5 94t-58.5 66.5t-86 41.5t-101.5 22.5t-108.5 6.5q-108 0 -193 -23.5t-138 -74 t-54 -121.5z" />
<glyph unicode="9" horiz-adv-x="1327" d="M123 856q0 76 18 142.5t59.5 125t103 100.5t153.5 66.5t207 24.5t212 -45t169 -130.5t112.5 -219.5t40.5 -302q0 -132 -32 -241t-87 -183t-129.5 -125t-157.5 -74.5t-174 -23.5q-158 0 -271 40.5t-169 88.5q-15 15 -15.5 19.5t9.5 21.5l47 70q9 13 14.5 13.5t12.5 -11.5 q35 -48 133.5 -88t247.5 -37q93 2 168.5 31.5t125 77.5t82.5 112.5t47.5 132t14.5 140.5q0 49 -10 50q-5 -1 -19 -18q-50 -68 -163.5 -109.5t-254.5 -41.5q-211 0 -353 114t-142 279zM254 877q0 -73 35.5 -133t91.5 -95.5t120.5 -54.5t127.5 -19q61 0 128.5 19t128 52 t99.5 87t39 117q0 162 -102.5 255t-300.5 93q-88 0 -159 -27.5t-115.5 -73t-68.5 -102.5t-24 -118z" />
<glyph unicode=":" horiz-adv-x="618" d="M223 82q0 36 26 62t62 26q35 0 60.5 -26.5t25.5 -61.5q0 -37 -25.5 -62.5t-60.5 -25.5q-37 0 -62.5 25.5t-25.5 62.5zM223 711q0 36 26 62t62 26q35 0 60.5 -26.5t25.5 -61.5q0 -37 -25.5 -63.5t-60.5 -26.5q-37 0 -62.5 26.5t-25.5 63.5z" />
<glyph unicode=";" horiz-adv-x="626" d="M121 -279l108 396q7 27 12 32t21 7l96 8q18 2 25.5 -6t-0.5 -25l-195 -403q-14 -30 -20 -33q-1 -1 -21 -2q-9 -1 -16 -0.5t-10 7t0 19.5zM236 711q0 36 26 62t62 26q35 0 60.5 -26.5t25.5 -61.5q0 -37 -25.5 -63.5t-60.5 -26.5q-37 0 -62.5 26.5t-25.5 63.5z" />
<glyph unicode="&#x3c;" horiz-adv-x="860" d="M152 614q-18 18 0 39l452 461q16 19 29 0l35 -55q15 -27 -9 -47l-331 -338q-6 -6 -18 -17t-16.5 -16t-4.5 -8q0 -5 1.5 -9t6 -8.5l7.5 -7.5t10 -9t10 -9l327 -326q8 -8 17 -14q2 -1 5.5 -2.5t5.5 -2t4 -1.5t2.5 -2.5t0 -3.5t-1.5 -5l-4 -10l-43 -80q-5 -7 -14.5 -6 t-18.5 10z" />
<glyph unicode="=" horiz-adv-x="1120" d="M223 373v53q5 31 17 31h628q7 0 16 -4t9 -9v-82q0 -6 -8 -10t-15 -4h-628q-4 0 -9 6t-7 12zM223 623v55q5 31 17 31h628q7 0 16 -4t9 -9v-82q0 -6 -8 -10t-15 -4h-628q-4 0 -9 6t-7 12z" />
<glyph unicode="&#x3e;" horiz-adv-x="864" d="M176 239q-1 2 2 3.5t4.5 2.5t6.5 2.5t8 2.5l14 14l328 326q3 2 9 7.5t8 7.5l6.5 6.5t6 7t3 6.5t1.5 8q0 3 -38 41l-332 338q-23 20 -8 47l34 55q13 19 29 0l453 -461q18 -21 0 -39l-453 -467q-9 -9 -18.5 -10t-14.5 6l-43 80l-4 10q-1 4 -2 6z" />
<glyph unicode="?" horiz-adv-x="1071" d="M147 1141q2 9 19 24q49 46 137 81.5t199 35.5q73 0 144.5 -19.5t132 -55.5t97.5 -95.5t37 -132.5q0 -67 -20.5 -117t-65.5 -88.5t-92 -64t-125 -58.5q-33 -13 -37.5 -29t0.5 -47l15 -229q1 -11 -1.5 -16.5t-6 -6.5t-9.5 -1h-96q-12 0 -18.5 7t-7.5 25q-15 236 -21 326 q-1 22 6 31t25 16l143 61q34 15 59 29t54 36.5t45 53.5t16 68q0 74 -69.5 131t-192.5 57q-198 0 -283 -121q-7 -12 -9.5 -13t-12.5 11l-55 80q-9 12 -7 21zM434 82q0 36 26 62t62 26t62 -26t26 -62q0 -37 -25.5 -62.5t-62.5 -25.5t-62.5 25.5t-25.5 62.5z" />
<glyph unicode="@" horiz-adv-x="1777" d="M158 631q0 152 61 282t162.5 217.5t235 137t278.5 49.5t277 -43t236 -122.5t166 -205t62 -278.5q0 -190 -85.5 -305t-207.5 -115q-63 0 -110 20.5t-70 50t-33.5 54t-11.5 41.5q-1 12 -5.5 14t-8.5 -6q-20 -37 -85 -82t-151 -45q-78 0 -148 38t-116.5 115t-46.5 177 q0 148 97.5 238.5t226.5 90.5q75 0 133.5 -34t87.5 -78q4 -8 11 -6t7 8l4 65q0 16 13 19l80 8q11 0 12 -2q-4 -16 -4 -57v-437q0 -57 38 -81.5t80 -24.5q29 0 59.5 17.5t61 54t49.5 106t19 160.5q0 169 -90.5 295.5t-233.5 189t-313 62.5q-140 0 -259 -46t-200 -125 t-126.5 -185.5t-45.5 -225.5q0 -121 35.5 -222t94.5 -170.5t138 -118t164 -71t174 -22.5q124 0 215 39q20 10 23 10q2 2 4 -0.5t2 -5.5l12 -80q2 -10 -16 -16q-11 -5 -38 -14t-85 -19t-117 -10q-200 0 -361.5 85t-256 244.5t-94.5 364.5zM664 629q0 -94 64 -165t153 -71 q94 0 163.5 67.5t69.5 166.5q0 104 -68 165.5t-165 61.5q-91 0 -154 -65t-63 -160z" />
<glyph unicode="A" horiz-adv-x="1372" d="M23 6l589 1247q12 23 25 23h96q15 0 23 -23l594 -1239q2 -4 2 -7q0 -7 -11 -7h-118q-18 0 -29 25l-127 270q-8 20 -25 20l-714 2q-14 0 -25 -22l-115 -246q-2 -5 -8 -18.5t-12 -24.5q-3 -6 -37 -6h-104q-5 0 -5 3q0 1 1 3zM373 449q-2 -6 -2 -10q0 -7 8 -7h596 q18 0 18 12q0 6 -4 15l-293 626q-4 13 -12 13q-4 0 -5.5 -2t-3.5 -7.5t-3 -7.5z" />
<glyph unicode="B" horiz-adv-x="1396" d="M197 25v1239q0 5 4 9.5t10 4.5h596q186 0 292 -88.5t111 -212.5v-7q0 -50 -14 -96q-14 -48 -38.5 -80.5t-38.5 -46.5t-27 -24q-15 -12 -5 -18q100 -44 152 -128t55 -188v-11q0 -66 -23 -130q-25 -68 -73.5 -124t-127.5 -90t-177 -34h-670q-26 0 -26 25zM328 137 q0 -7 5 -12.5t13 -5.5h547q120 0 188 76.5t68 179.5q0 102 -67 176t-189 74h-549q-7 0 -11.5 -5.5t-4.5 -11.5v-471zM328 764q0 -7 4.5 -13t11.5 -6h490q97 0 164 59.5t67 147.5q0 95 -65.5 150t-192.5 55h-467q-12 0 -12 -16v-377z" />
<glyph unicode="C" horiz-adv-x="1462" d="M102 631q0 203 89 359.5t243 240.5t348 84q113 0 211.5 -27.5t164.5 -72t107 -99.5t50 -112q2 -3 0.5 -13.5t-8.5 -13.5l-88 -31q-16 -5 -25 23q-12 41 -42.5 79t-79 71.5t-124 54t-166.5 20.5q-249 0 -396.5 -157t-147.5 -406q0 -107 32.5 -197t87 -152t126.5 -105 t150.5 -63t160.5 -20q84 0 161.5 24t133 62.5t94 79t59.5 80.5q9 17 27 14l86 -12q10 0 14 -13q1 -5 1 -10q0 -6 -3 -10q-58 -136 -220.5 -237t-352.5 -101q-96 0 -190.5 22.5t-186 73.5t-161 125.5t-112.5 188t-43 250.5z" />
<glyph unicode="D" horiz-adv-x="1486" d="M199 39v1192q0 47 43 47h569q83 0 160.5 -19.5t152 -66.5t130 -117t89 -178.5t33.5 -243.5q0 -141 -35.5 -255t-92.5 -186.5t-132.5 -121.5t-151 -69.5t-153.5 -20.5h-586q-11 0 -18.5 10.5t-7.5 28.5zM330 152q0 -16 6 -20.5t18 -4.5h457q58 0 115 15t116 53t103 96 t72 151.5t28 210.5q0 92 -17.5 168.5t-49.5 130t-73 93t-90.5 62.5t-100 33.5t-103.5 10.5h-453q-10 0 -15 -1t-9 -7t-4 -19v-972z" />
<glyph unicode="E" horiz-adv-x="1232" d="M197 35v1210q0 13 8 23t20 10h910q12 0 12 -14l-10 -95q-3 -14 -17 -14h-770q-10 0 -16 -9.5t-6 -21.5v-389q0 -26 16 -26h567q13 0 13 -13v-94q0 -14 -13 -14h-565q-18 0 -18 -15v-428q0 -15 2.5 -18.5t15.5 -3.5h774q14 0 19 -19l12 -73q1 -6 1 -10q0 -21 -22 -21h-911 q-22 0 -22 35z" />
<glyph unicode="F" horiz-adv-x="1302" d="M197 14v1235q0 12 7 20.5t19 8.5h1014q6 0 10 -6q3 -4 3 -8q0 -2 -1 -4l-8 -91q-3 -14 -18 -14h-875q-20 0 -20 -25v-401q0 -20 14 -20h676q10 0 10 -11v-100q0 -12 -10 -12h-674q-16 0 -16 -17v-557q0 -4 -4 -8t-9 -4h-108q-10 0 -10 14z" />
<glyph unicode="G" horiz-adv-x="1470" d="M102 621q0 159 53 291.5t143.5 219.5t209 135t250.5 48q105 0 197 -28t154.5 -70.5t110 -94.5t71.5 -97.5t30 -82.5q5 -15 -8 -18l-99 -31q-6 -1 -12 4t-6 10q-5 28 -24.5 63.5t-57.5 75.5t-87 72.5t-119.5 54t-149.5 21.5q-153 0 -273 -75t-184.5 -203.5t-64.5 -286.5 q0 -118 39.5 -218.5t107.5 -169t160.5 -107t197.5 -38.5q204 0 337.5 105t156.5 303q2 3 -2 7.5t-10 4.5l-471 2q-10 0 -13 10l-12 97q0 10 8 10q334 -2 496 -2l135 4q16 2 16 -12v-6q0 -125 -38 -237q-40 -116 -115 -208.5t-196 -147.5t-271 -55q-195 0 -346 84.5 t-232.5 232t-81.5 333.5z" />
<glyph unicode="H" horiz-adv-x="1576" d="M195 18v1242q0 7 0.5 10t3 5.5t8.5 2.5h104q15 0 15 -18v-533q0 -18 16 -18h891q14 0 14 20v528q0 12 3.5 16.5t15.5 4.5h96q10 0 13 -4t3 -17v-1239q0 -18 -16 -18h-100q-15 0 -15 20v537q0 21 -14 21h-891q-8 0 -11.5 -1.5t-4 -5t-0.5 -12.5v-541q0 -18 -19 -18h-94 q-18 0 -18 18z" />
<glyph unicode="I" horiz-adv-x="526" d="M197 20v1229q0 29 20 29h90q23 0 23 -25v-1222q0 -22 -4 -26.5t-19 -4.5h-90q-20 0 -20 20z" />
<glyph unicode="J" horiz-adv-x="1210" d="M43 135l39 113q6 13 16 0q62 -71 154 -110.5t201 -39.5q197 0 323.5 116.5t126.5 324.5v721q0 16 17 16h98q16 0 16 -19v-718q0 -135 -46.5 -245t-126.5 -180.5t-185 -108.5t-223 -38q-115 0 -220 36.5t-182 105.5q-9 8 -9 18q0 4 1 8z" />
<glyph unicode="K" horiz-adv-x="1212" d="M197 14v1250v3q0 7 1.5 9t10.5 2h102q9 0 12.5 -1.5t4 -4.5t0.5 -9v-6v-477q0 -7 10 -2l539 443q15 13 27 24t17.5 16.5l10 10t7 5.5t5.5 1h156q14 0 18.5 -2t3.5 -6q-2 -4 -22 -25q-565 -462 -647 -530q-13 -9 4 -17q34 -16 128.5 -105t193 -187t209 -189.5 t175.5 -114.5q15 -5 21 -9t6 -7q0 -2 -2 -10l-14 -88q-4 -17 -18 -17q-6 0 -13 2q-72 20 -167 87.5t-185 152.5t-173.5 168.5t-154.5 148t-107 78.5q-16 8 -22 4q-6 -3 -6 -14v-575v-10q0 -10 -1 -11.5t-10 -1.5h-8h-98q-9 0 -11.5 2t-2.5 12z" />
<glyph unicode="L" horiz-adv-x="1083" d="M197 20v1242q0 6 0.5 9t4.5 5t13 2h100q15 0 15 -14v-1106q0 -14 0.5 -18t5 -6.5t16.5 -2.5h588q16 0 80 8q5 1 7.5 0t4 -3.5t2.5 -8.5l6 -109q0 -14 -2 -16t-12 -2h-94h-715q-20 0 -20 20z" />
<glyph unicode="M" horiz-adv-x="1474" d="M197 18v1244q0 18 12 18l80 2h5q8 0 11.5 -1.5t9.5 -8.5q248 -316 402 -488q9 -12 18 -12q12 0 21 12q68 76 168.5 198t166.5 206l66 84q1 2 3 4.5t2.5 3l2 2t4 1.5h6t9.5 -1l78 -4q16 -2 16 -23v-1235q0 -20 -18 -20h-105q-14 0 -14 16v1012q0 12 -4.5 12t-8.5 -6 q-17 -19 -143.5 -176.5t-212.5 -255.5q-12 -18 -37 -18q-23 0 -35 18q-86 98 -212.5 255.5t-143.5 176.5q-4 6 -8 6t-4 -12v-1008q0 -9 -3.5 -14t-6.5 -5.5t-9 -0.5h-102q-5 0 -7.5 0.5t-4.5 4.5t-2 13z" />
<glyph unicode="N" horiz-adv-x="1523" d="M197 20v1221q0 24 4.5 30.5t17.5 6.5l68 6q10 2 16 2q5 0 7 -1q6 -2 20 -19l827 -1000q16 -22 27 -22q12 0 12 24v987q0 14 5.5 18.5t23.5 4.5h80q14 0 18 -6.5t4 -22.5v-1229q1 -20 -5 -24q-4 -3 -13 -3q-4 0 -9 1l-61 4q-2 0 -7.5 0.5t-7 1t-5.5 1.5t-7 3.5t-7.5 7 t-10.5 11.5l-832 1003q-18 23 -22 23q-9 0 -10.5 -5t-1.5 -20v-8v-996q0 -20 -21 -20h-94q-10 0 -13 4.5t-3 15.5z" />
<glyph unicode="O" horiz-adv-x="1599" d="M98 643q0 184 95 339t256 244t350 89q142 0 271.5 -52.5t224 -142t150.5 -214.5t56 -263q0 -137 -56 -262t-150.5 -214.5t-224 -142.5t-271.5 -53q-189 0 -350 89.5t-256 244.5t-95 338zM233 643q0 -108 44.5 -207t120 -171.5t180.5 -115.5t221 -43q155 0 285.5 72.5 t206 196.5t75.5 268t-75.5 268t-206 196.5t-285.5 72.5q-116 0 -221 -43t-180.5 -115.5t-120 -171.5t-44.5 -207z" />
<glyph unicode="P" horiz-adv-x="1284" d="M197 20v1219q0 21 6.5 29t23.5 8h588q81 0 149 -19.5t114.5 -52t78.5 -77t47 -93.5t15 -102q0 -153 -105 -250.5t-272 -97.5h-484q-13 0 -20.5 -10t-7.5 -23v-526q0 -17 -4.5 -21t-16.5 -4h-92q-20 0 -20 20zM330 731q0 -12 8 -21.5t20 -9.5h457q126 0 197.5 68t74.5 162 v5q0 91 -70 157q-72 68 -202 69h-463q-9 0 -15.5 -7.5t-6.5 -16.5v-406z" />
<glyph unicode="Q" horiz-adv-x="1609" d="M92 643q0 184 95 339t256 244t350 89q142 0 271.5 -52.5t224 -142t150.5 -214.5t56 -263q0 -184 -110 -352.5t-273 -239.5q-3 -1 -7 -2t-4.5 -1.5t-1.5 -2t-1 -4.5q0 -2 0.5 -3t1.5 -1.5t2.5 -1t3.5 -0.5h4h5.5h6.5q70 -4 107 -4q134 0 244 20q18 6 24 1q4 -4 4 -15 q0 -8 -2 -19l-16 -96q-3 -20 -29 -20q-426 0 -684 49q-119 23 -217 58t-185.5 91.5t-147 131t-94 179t-34.5 232.5zM227 643q0 -111 36.5 -207.5t106 -170.5t178.5 -116.5t245 -42.5q155 0 285.5 72.5t206 196.5t75.5 268t-75.5 268t-206 196.5t-285.5 72.5q-116 0 -221 -43 t-180.5 -115.5t-120 -171.5t-44.5 -207z" />
<glyph unicode="R" horiz-adv-x="1339" d="M197 23v1228q0 15 4.5 20t19.5 5h586q187 0 299.5 -107t112.5 -262q0 -108 -61.5 -192.5t-157 -127t-203.5 -42.5h-150q-11 0 -15 -3.5t3 -11.5q14 -15 53 -51.5t55 -52.5q204 -201 381 -297q61 -36 138 -45q12 -1 12 -13q0 -9 -6 -16l-39 -75q-5 -10 -10 -13 q-2 -2 -7.5 -1.5t-13.5 1.5q-96 22 -184 80q-210 138 -441 365l-106 96q-31 28 -52 36.5t-63 8.5q-22 0 -22 -21v-509q0 -13 -3.5 -18t-17.5 -5h-94q-18 0 -18 23zM330 676q0 -14 20 -14h420q135 0 224 67t89 191q0 94 -71 167.5t-197 73.5h-467q-18 0 -18 -14v-471z" />
<glyph unicode="S" horiz-adv-x="1204" d="M111 174q-14 16 -14 29t14 24l53 43q8 7 14 9.5t10 1t6 -3.5t6 -8t7 -9q166 -156 403 -156q146 0 238 50q68 36 101.5 90t33.5 110q0 102 -92 168q-82 59 -281 103q-194 45 -291 96q-75 36 -127.5 103.5t-52.5 162.5q0 79 46 149t124 113q119 66 293 66q112 0 231 -31.5 t181 -66.5q14 -7 18 -19.5t0 -23.5l-20 -66q-11 -29 -49 -6q-37 24 -139.5 56t-215.5 32q-146 0 -227 -43q-54 -28 -81.5 -69t-27.5 -87q0 -34 13.5 -64t34 -49.5t37 -31t30.5 -17.5q150 -53 234 -73q217 -48 340 -125q155 -103 155 -271q0 -139 -94 -241 q-138 -148 -412 -148q-132 0 -273.5 52.5t-225.5 150.5z" />
<glyph unicode="T" horiz-adv-x="1001" d="M90 1178v86q0 10 1.5 12t10.5 2h789q16 0 16 -12v-92q0 -15 -18 -15h-307q-17 0 -17 -22v-1117q0 -14 -2.5 -17t-13.5 -3h-98q-19 0 -19 20v1117q0 8 -4.5 15t-11.5 7h-310q-8 0 -11.5 1.5t-4 5t-0.5 12.5z" />
<glyph unicode="U" horiz-adv-x="1511" d="M174 547v723q0 12 6 16q4 2 10 3q4 0 9 -1l86 -14q13 -3 16.5 -9.5t3.5 -25.5v-692q0 -140 61 -242t161.5 -151.5t228.5 -49.5t228.5 49.5t161 151.5t60.5 242v700q0 24 17 27l94 14h5q15 0 15 -18v-723q0 -136 -46.5 -246.5t-126.5 -181t-185 -108.5t-223 -38t-223 38 t-185.5 108.5t-127 181t-46.5 246.5z" />
<glyph unicode="V" horiz-adv-x="1271" d="M53 1274q0 5 4 7q3 1 7 1h4l112 -8q6 -1 10.5 -2t7 -1.5t4.5 -3.5t3 -4t3 -7.5t3 -8.5l403 -989q10 -25 23 -29q10 4 20 29l406 999q10 17 24 17l117 8h6q12 0 12 -4q0 -2 -8 -21l-507 -1210q0 -1 -2 -5.5t-3 -6.5l-3 -6t-3.5 -6t-3.5 -6t-4 -6l-4.5 -4.5t-4.5 -3.5 t-5 -2t-6 -1h-64q-3 0 -6 1t-5 2t-4.5 3.5l-4.5 4.5t-4 6t-3.5 6t-3.5 6l-3 6t-3 6.5t-2 5.5l-504 1200l-6 16.5t-2 10.5z" />
<glyph unicode="W" horiz-adv-x="1869" d="M58 1267q4 12 12 13l102 10q11 1 18 -6t9 -16l372 -1026q5 -10 13 -8.5t10 8.5l268 682q10 30 29 30h88q20 0 27 -30l268 -682q2 -7 10.5 -8.5t11.5 8.5l377 1034q4 12 8 14q2 1 5 2q3 0 8 -2l104 -10q18 -2 18 -12q0 -3 -1 -6l-449 -1246q-8 -16 -18 -16h-101 q-17 0 -20 12l-281 705q-6 28 -14 28q-2 0 -3 -0.5t-2 -2.5l-2 -4t-2.5 -6t-2.5 -7l-281 -713q-3 -12 -21 -12h-96q-5 0 -11 5t-7 11l-445 1229q-3 6 -3 12z" />
<glyph unicode="X" horiz-adv-x="1345" d="M31 27l532 620q21 25 21 33q0 5 -1 6.5t-4 5.5l-6 8l-473 553q-21 24 21 29l92 8q22 4 41 -18l397 -473q12 -15 21 -17q10 2 16 11l414 483q15 17 36 17q5 0 11 -1l98 -14q13 -2 16.5 -6.5t1 -9.5t-9.5 -13l-477 -555q-10 -12 -10 -20q0 -10 20 -33l527 -623q7 -11 7 -15 q0 -3 -15 -3h-4h-111h-10h-8t-6 0.5t-6 2.5t-5.5 5t-7.5 8l-453 533q-13 16 -20 16q-8 0 -21 -16l-454 -529q-12 -14 -19.5 -17t-31.5 -3h-107q-22 0 -22 10q0 6 10 17z" />
<glyph unicode="Y" horiz-adv-x="1239" d="M29 1268q-8 12 -8 18q0 8 12 6l123 -4q7 0 10.5 -0.5t6.5 -2t4 -3t3.5 -6t5.5 -8.5l392 -561q18 -27 28 -39.5t12.5 -13.5t6.5 -1q11 0 47 54l377 563q1 2 3 5q8 13 12 13q2 1 8 0h11l123 6q7 0 10.5 -1t3.5 -3.5t-1 -4.5t-3.5 -5t-3.5 -4l-493 -729q-4 -6 -9.5 -14.5 t-8.5 -13t-5 -10t-2 -11.5v-473q0 -18 -4 -21.5t-18 -3.5h-99q-9 0 -12.5 1t-6.5 6t-3 16v475q0 18 -21 49z" />
<glyph unicode="Z" horiz-adv-x="1277" d="M99 16q1 4 1 8v11v43v10v8.5t0.5 6.5t1.5 7t3.5 7t5.5 8l833 997q5 6 4 14.5t-8 8.5h-784q-16 0 -22 5t-9 24l-16 75q-3 18 3.5 23.5t32.5 5.5h983q15 0 20 -5.5t5 -19.5l6 -51q2 -22 -1 -31.5t-13 -21.5l-842 -1008q-2 -1 -1.5 -5.5t3.5 -4.5h840q27 -1 31 -7q1 -3 1 -8 q0 -9 -3 -24l-7 -57q-1 -5 -1.5 -12.5t-0.5 -9.5t-2 -6t-3.5 -4.5t-7.5 -1.5t-11 -1h-17h-993q-9 0 -15 1t-10 1q-2 2 -4 6q-2 6 -3 8z" />
<glyph unicode="[" horiz-adv-x="546" d="M188 0v1v1v1v1v1v1v1v1v1v1v1v1v1v1v1v1v1v1v1v1v1v1v1v1v1v1v1v1v1v1v1v1v1v1v1v1v1v1v1v1v1v1v1v1v1v1v1v1v1v1v1v1v1v1v1v1v1v1v1v1v1v1v1v1v1v1v1v1v1v1v1v1v1v1v1v1v1v1v1v1v1v1v1v1v1v1v1v1v1v1v1v1v1v1v1v1v1v2v1v1v1v1v1v1v1v1v1v1v1v1v1v1v1v1v1v1v1v1v1v2v1v1 v1v1v1v1v1v1v1v1v1v1v1v2v1v1v1v1v1v1v1v1v1v1v1v2v1v1v1v1v1v1v1v1v1v2v1v1v1v1v1v1v1v1v2v1v1v1v1v1v1v1v2v1v1v1v1v1v1v2v1v1v1v1v1v1v2v1v1v1v1v1v1v2v1v1v1v1v1v2v1v1v1v1v1v2v1v1v1v1v1v2v1v1v1v1v2v1v1v1v1v1v2v1v1v1v1v2v1v1v1v1v2v1v1v1v1v2v1v1v1v2v1v1v1v1v2v1v1 v1v2v1v1v1v1v2v1v1v1v2v1v1v1v2v1v1v1v2v1v1v1v1v2v1v1v1v2v1v1v2v1v1v1v2v1v1v1v2v1v1v1v2v1v1v2v1v1v1v2v1v1v1v2v1v1v2v1v1v1v2v1v1v2v1v1v2v1v1v1v2v1v1v2v1v1v2v1v1v1v2v1v1v2v1v1v2v1v1v2v1v1v2v1v1v2v1v1v2v1v1v2v1v1v2v1v1v2v1v1v2v1v1v2v1v1v2v1v1v2v1v2v1v1v2v1v1 v2v1v1v2v1v1v2v1v2v1v1v2v1v1v2v1v2v1v1v2v1v1v2v1v2v1v1v2v1v2v1v1v2v1v2v1v1v2v1v2v1v1v2v1v2v1v1v2v1v2v1v1v2v1v2v1v2v1v1v2v1v2v1v1v2v1v2v1v2v1v1v2v1v2v1v2v1v2v1v1v2v1v2v1v2v1v1v2v1v2v1v2v1v2v1v2v1v1v2v1v2v1v2v1v2v1v2v1v2v1v2v1v1v2v1v2v1v2v1v2v1v2v1v2v1v2v1 v2v1v2v1v2v1v2v1v2v1v2v1v2v1v2v1v2v1v2v1v2v1v2v1v2v1v2v1v2v1v2v1v2v1v2v1v2v1v2v1v2v1v2v1v2v1v2v1v2v2v1v2v1v2v1v2v1v2v1v2v1v2v2v1v2v1v2v1v2v1v2v1v2v2v1v2v1v2v1v2v1v2v2v1v2v1v2v1v2v1v2v2v1v2v1v2v1v2v2v1v2v1v2v2v1v2v1v2v1v2v2v1v2v1v2v2v1v2v1v2v1v2v2v1v2v1v2 v2v1v2v1v2v2v1v2v2v1v2v1v2v2v1v2v1v2v2v1v2v1v2v2v1v2v2v1v2v1v2v2v1v2v2v1v2v1v2v2v1v2v2v1v2v2v1v2v2v1v2v1v2v2v1v2v2v1v2v2v1v2v2v1v2v2v1v2v2v1v2v2v1v2v2v1v2v1v2v2v2v1v2v2v1v2v2v1v2v2v1v2v2v1v2v2v1v2v2v1v2v2v1v2v2v2v1v2v2v1v2v2v1v2v2v2v1v2v2v1v2v2v1v2v2v2v1 v2v2v1v2v2v2v1v2v2v1v2v2v2v1v2v2v1v2v2v2v1v2v2v2v1v2v2v2v1v2v2v1v2v2v2v1v2v2v2v1v2v2v2v1v2v2v2v1v2v2v2v1v2v2v2v1v2v2v2v1v2v2v2v2v1v2v2v2v1v2v2v2v2v1v2v2v2v1v2v2v2v2v1v2v2v2v1v2v2v2v2v1v2v2v2v2v1v2v2v2v2v1v2v2v2v2v1v2v2v2v2v2v1v2v2v2v2v1v2v2v2v2v2v1v2v2v2 v2v1v2v2v2v2v2v1v2v2v2v2v2v2v1v2v2v2v2v2v1v2v2v2v2v2v2v1v2v2v2v2v2v2v1v2v2v2v2v2v2v2v1v2v2v2v2v2v2v2v1v2v2v2v2v2v2v2v2v1v2v2v2v2v2v2v2v2v2v1v2v2v2v2v2v2v2v2v2v2v2v1v2v2v2v2v2v2v2v2v2v2v2v2v2v2v2v2v1v2v2v2v2v2v2v2v2v2v2v2v2v2v2v2v2v2v2v2v2v8q0 14 15 14 h237q11 0 11 -6v-51v-5v-4t-0.5 -3.5t-1 -3t-2.5 -1.5t-4.5 -1.5t-6.5 -0.5h-98q-10 0 -13 -2t-3 -10v-1v-1v-1v-1v-1v-1v-1v-1v-1v-1v-1v-1v-1v-1v-1v-1v-1v-1v-1v-1v-1v-1v-1v-1v-1v-1v-1v-1v-1v-1v-1v-1v-1v-1v-1v-1v-1v-1v-1v-1v-1v-1v-1v-1v-1v-1v-1v-1v-1v-1v-1v-1v-1 v-1v-1v-1v-1v-1v-1v-1v-1v-1v-1v-1v-1v-1v-1v-1v-1v-1v-1v-1v-1v-1v-1v-1v-1v-1v-1v-1v-1v-1v-1v-1v-1v-1v-1v-1v-1v-1v-1v-1v-1v-1v-1v-1v-1v-1v-1v-1v-1v-1v-1v-1v-1v-1v-1v-1v-1v-1v-1v-1v-1v-1v-1v-1v-1v-1v-1v-1v-1v-1v-1v-1v-1v-1v-1v-1v-1v-1v-1v-1v-1v-1v-1v-1v-1 v-1v-1v-1v-1v-1v-1v-1v-1v-1v-1v-1v-1v-1v-1v-1v-1v-1v-1v-1v-1v-1v-1v-1v-1v-1v-1v-1v-1v-1v-1v-1v-1v-1v-1v-1v-1v-1v-1v-1v-1v-1v-1v-1v-1v-1v-1v-1v-1v-1v-1v-1v-1v-1v-1v-1v-1v-1v-1v-1v-1v-1v-1v-1v-1v-1v-1v-1v-1v-1v-1v-1v-1v-1v-1v-1v-1v-1v-1v-1v-1v-1v-1v-1v-1 v-1v-1v-1v-1v-1v-1v-1v-1v-1v-1v-1v-1v-1v-1v-1v-1v-1v-1v-1v-1v-1v-1v-1v-1v-1v-1v-1v-1v-1v-1v-2v-1v-1v-1v-1v-1v-1v-1v-1v-1v-1v-1v-1v-1v-1v-1v-1v-1v-1v-1v-1v-1v-1v-2v-1v-1v-1v-1v-1v-1v-1v-1v-1v-1v-1v-1v-1v-2v-1v-1v-1v-1v-1v-1v-1v-1v-1v-1v-2v-1v-1v-1v-1v-1 v-1v-1v-1v-1v-2v-1v-1v-1v-1v-1v-1v-1v-2v-1v-1v-1v-1v-1v-1v-1v-2v-1v-1v-1v-1v-1v-1v-2v-1v-1v-1v-1v-1v-1v-2v-1v-1v-1v-1v-1v-1v-2v-1v-1v-1v-1v-1v-2v-1v-1v-1v-1v-2v-1v-1v-1v-1v-1v-2v-1v-1v-1v-1v-2v-1v-1v-1v-1v-2v-1v-1v-1v-1v-2v-1v-1v-1v-1v-2v-1v-1v-1v-1v-2 v-1v-1v-1v-2v-1v-1v-1v-1v-2v-1v-1v-1v-2v-1v-1v-1v-2v-1v-1v-1v-2v-1v-1v-1v-2v-1v-1v-1v-2v-1v-1v-1v-2v-1v-1v-1v-2v-1v-1v-1v-2v-1v-1v-1v-2v-1v-1v-2v-1v-1v-1v-2v-1v-1v-2v-1v-1v-1v-2v-1v-1v-2v-1v-1v-1v-2v-1v-1v-2v-1v-1v-2v-1v-1v-1v-2v-1v-1v-2v-1v-1v-2v-1v-1 v-2v-1v-1v-2v-1v-1v-2v-1v-1v-2v-1v-1v-2v-1v-1v-2v-1v-1v-2v-1v-1v-2v-1v-1v-2v-1v-1v-2v-1v-1v-2v-1v-2v-1v-1v-2v-1v-1v-2v-1v-1v-2v-1v-2v-1v-1v-2v-1v-1v-2v-1v-1v-2v-1v-2v-1v-1v-2v-1v-2v-1v-1v-2v-1v-2v-1v-1v-2v-1v-1v-2v-1v-2v-1v-1v-2v-1v-2v-1v-2v-1v-1v-2v-1 v-2v-1v-1v-2v-1v-2v-1v-2v-1v-1v-2v-1v-2v-1v-1v-2v-1v-2v-1v-2v-1v-2v-1v-1v-2v-1v-2v-1v-2v-1v-2v-1v-1v-2v-1v-2v-1v-2v-1v-2v-1v-1v-2v-1v-2v-1v-2v-1v-2v-1v-2v-1v-2v-1v-2v-1v-1v-2v-1v-2v-1v-2v-1v-2v-1v-2v-1v-2v-1v-2v-1v-2v-1v-2v-1v-2v-1v-2v-1v-2v-1v-2v-1v-2 v-1v-2v-1v-2v-1v-2v-1v-2v-1v-2v-1v-2v-1v-2v-1v-2v-1v-2v-1v-2v-1v-2v-1v-2v-1v-2v-1v-2v-2v-1v-2v-1v-2v-1v-2v-1v-2v-1v-2v-1v-2v-1v-2v-2v-1v-2v-1v-2v-1v-2v-1v-2v-2v-1v-2v-1v-2v-1v-2v-1v-2v-2v-1v-2v-1v-2v-1v-2v-1v-2v-2v-1v-2v-1v-2v-1v-2v-2v-1v-2v-1v-2v-2v-1 v-2v-1v-2v-1v-2v-2v-1v-2v-1v-2v-2v-1v-2v-1v-2v-2v-1v-2v-1v-2v-2v-1v-2v-1v-2v-2v-1v-2v-1v-2v-2v-1v-2v-2v-1v-2v-1v-2v-2v-1v-2v-1v-2v-2v-1v-2v-2v-1v-2v-1v-2v-2v-1v-2v-2v-1v-2v-2v-1v-2v-1v-2v-2v-1v-2v-2v-1v-2v-2v-1v-2v-2v-1v-2v-2v-1v-2v-2v-1v-2v-1v-2v-2v-1 v-2v-2v-1v-2v-2v-1v-2v-2v-1v-2v-2v-1v-2v-2v-2v-1v-2v-2v-1v-2v-2v-1v-2v-2v-1v-2v-2v-1v-2v-2v-1v-2v-2v-2v-1v-2v-2v-1v-2v-2v-1v-2v-2v-2v-1v-2v-2v-1v-2v-2v-2v-1v-2v-2v-1v-2v-2v-2v-1v-2v-2v-1v-2v-2v-2v-1v-2v-2v-1v-2v-2v-2v-1v-2v-2v-2v-1v-2v-2v-2v-1v-2v-2v-2 v-1v-2v-2v-2v-1v-2v-2v-2v-1v-2v-2v-2v-1v-2v-2v-2v-1v-2v-2v-2v-1v-2v-2v-2v-1v-2v-2v-2v-1v-2v-2v-2v-2v-1v-2v-2v-2v-1v-2v-2v-2v-2v-1v-2v-2v-2v-2v-1v-2v-2v-2v-2v-1v-2v-2v-2v-2v-1v-2v-2v-2v-2v-1v-2v-2v-2v-2v-1v-2v-2v-2v-2v-1v-2v-2v-2v-2v-2v-1v-2v-2v-2v-2v-2 v-1v-2v-2v-2v-2v-1v-2v-2v-2v-2v-2v-2v-1v-2v-2v-2v-2v-2v-1v-2v-2v-2v-2v-2v-2v-1v-2v-2v-2v-2v-2v-2v-1v-2v-2v-2v-2v-2v-2v-2v-1v-2v-2v-2v-2v-2v-2v-2v-2v-1v-2v-2v-2v-2v-2v-2v-2v-2v-1v-2v-2v-2v-2v-2v-2v-2v-2v-2v-2v-1v-2v-2v-2v-2v-2v-2v-2v-2v-2v-2v-2v-2v-2v-1 v-2v-2v-2v-2v-2v-2v-2v-2v-2v-2v-2v-2v-2v-2v-2v-2v-2v-2v-2v-2v-9q0 -7 1 -8.5t9 -1.5h104q11 0 13 -1t2 -6v-3v-55q0 -11 -11 -11h-1h-1h-1h-1h-1h-1h-1h-1h-1h-1h-1h-1h-1h-1h-1h-1h-1h-1h-1h-1h-1h-1h-1h-1h-1h-1h-1h-1h-1h-1h-1h-1h-1h-1h-1h-1h-1h-1h-1h-1h-1h-2h-1 h-1h-1h-1h-1h-1h-1h-1h-2h-1h-1h-1h-1h-2h-1h-1h-1h-1h-2h-1h-1h-2h-1h-1h-1h-2h-1h-1h-2h-1h-1h-2h-1h-1h-2h-1h-2h-1h-1h-2h-1h-2h-1h-2h-1h-1h-2h-1h-2h-1h-2h-1h-2h-1h-2h-1h-2h-2h-1h-2h-1h-2h-1h-2h-2h-1h-2h-1h-2h-2h-1h-2h-2h-1h-2h-2h-1h-2h-2h-1h-2h-2h-1h-2h-2 h-2h-1h-2h-2h-2h-1h-2h-2h-2h-2h-1h-2h-2h-2h-2h-2h-1h-2h-2h-2h-2h-2h-2h-2h-2h-2h-2h-2h-1h-2h-2h-2h-10q-19 0 -19 17v1v1v1v1v1v1v1v1v1v1v1v1v1v1v1v1v1v1v1v1v1v1v1v1v1v1v1v1v1v1v1v1v1v1v1v1v1v1v1v1v1v1v1v1v1v1v1v1v1v1v1v1v1v1v1v1v1v1v1v1v1v1v1v1v1v1v1v1v1v1 v1v1v1v1v1v1v1v1v1v1v1v1v1v1v1v1v1v1v1v1v1v1v1v1v1v1v1v1v1v1v1v1v1v1v1v1v1v1v1v1v1v1v1v1v1v1v1v1v1v1v1v1v1v1v1v1v1v1v1v1v1v1v1v1v1v1v1v1v1v1v1v1v1v1v1v1v1v1v1v1v1v1v1v1v1v1v1v1v1v1v1v1v1v1v1v1v1v1v1v1v1v1v1v1v1v1v1v1v1v1z" />
<glyph unicode="\" horiz-adv-x="788" d="M150.5 1395.5q2.5 5.5 23.5 5.5h76q18 0 21 -3.5t8 -23.5l352 -1437q6 -20 5 -25.5t-13 -5.5h-76q-10 0 -16.5 1t-10 1.5t-6 4t-3 4t-2 6.5t-1.5 7l-354 1448q-6 12 -3.5 17.5z" />
<glyph unicode="]" horiz-adv-x="546" d="M96 -125q0 1 1.5 2.5t4.5 1.5h9h104q10 0 10 10v1v1v1v1v1v1v1v1v1v1v1v1v1v1v1v1v1v1v1v1v1v1v1v1v1v1v1v1v1v1v1v1v1v1v1v1v1v1v1v1v1v1v1v1v1v1v1v1v1v1v1v1v1v1v1v1v1v1v1v1v1v1v1v1v1v1v1v1v1v1v1v1v1v1v1v1v1v1v1v1v1v1v1v1v1v1v1v1v1v1v1v1v1v1v1v1v1v1v1v1v1v1v1 v1v1v1v1v1v1v1v1v1v1v1v1v1v1v1v1v1v1v1v1v1v1v1v1v1v1v1v1v1v1v1v1v1v1v1v1v1v1v1v1v1v1v1v1v1v1v1v1v1v1v1v1v1v1v1v1v1v1v1v1v1v1v1v1v1v1v1v1v1v1v1v1v1v1v1v1v1v1v1v1v1v1v1v1v1v1v1v1v1v1v1v1v1v1v1v1v1v1v1v1v1v1v1v1v1v1v1v1v1v1v1v1v1v1v1v1v1v1v1v1v1v1v1v1v1v1v1 v1v1v1v1v1v1v1v1v1v1v1v1v1v1v1v1v1v1v1v1v2v1v1v1v1v1v1v1v1v1v1v1v1v1v1v1v1v1v1v1v1v1v1v1v1v2v1v1v1v1v1v1v1v1v1v1v1v1v1v2v1v1v1v1v1v1v1v1v1v1v1v2v1v1v1v1v1v1v1v1v2v1v1v1v1v1v1v1v1v2v1v1v1v1v1v1v1v2v1v1v1v1v1v1v2v1v1v1v1v1v1v2v1v1v1v1v1v2v1v1v1v1v1v2v1v1v1 v1v1v2v1v1v1v1v1v2v1v1v1v1v2v1v1v1v1v2v1v1v1v1v2v1v1v1v1v2v1v1v1v1v2v1v1v1v2v1v1v1v1v2v1v1v1v2v1v1v1v2v1v1v1v1v2v1v1v1v2v1v1v1v2v1v1v1v2v1v1v2v1v1v1v2v1v1v1v2v1v1v1v2v1v1v2v1v1v1v2v1v1v2v1v1v1v2v1v1v2v1v1v2v1v1v1v2v1v1v2v1v1v2v1v1v2v1v1v1v2v1v1v2v1v1v2v1 v1v2v1v1v2v1v1v2v1v1v2v1v1v2v1v1v2v1v1v2v1v2v1v1v2v1v1v2v1v1v2v1v1v2v1v2v1v1v2v1v1v2v1v2v1v1v2v1v1v2v1v2v1v1v2v1v2v1v1v2v1v1v2v1v2v1v1v2v1v2v1v1v2v1v2v1v2v1v1v2v1v2v1v1v2v1v2v1v2v1v1v2v1v2v1v2v1v1v2v1v2v1v2v1v1v2v1v2v1v2v1v2v1v1v2v1v2v1v2v1v2v1v2v1v1v2v1 v2v1v2v1v2v1v2v1v2v1v2v1v2v1v1v2v1v2v1v2v1v2v1v2v1v2v1v2v1v2v1v2v1v2v1v2v1v2v1v2v1v2v1v2v1v2v1v2v1v2v1v2v1v2v1v2v1v2v1v2v2v1v2v1v2v1v2v1v2v1v2v1v2v1v2v2v1v2v1v2v1v2v1v2v1v2v1v2v2v1v2v1v2v1v2v1v2v2v1v2v1v2v1v2v2v1v2v1v2v1v2v2v1v2v1v2v1v2v2v1v2v1v2v1v2v2v1 v2v1v2v2v1v2v1v2v2v1v2v1v2v2v1v2v1v2v2v1v2v1v2v2v1v2v1v2v2v1v2v1v2v2v1v2v2v1v2v1v2v2v1v2v2v1v2v1v2v2v1v2v2v1v2v2v1v2v1v2v2v1v2v2v1v2v2v1v2v2v1v2v2v1v2v1v2v2v1v2v2v1v2v2v1v2v2v1v2v2v1v2v2v1v2v2v1v2v2v2v1v2v2v1v2v2v1v2v2v1v2v2v1v2v2v2v1v2v2v1v2v2v1v2v2v2v1 v2v2v1v2v2v1v2v2v2v1v2v2v1v2v2v2v1v2v2v1v2v2v2v1v2v2v2v1v2v2v1v2v2v2v1v2v2v2v1v2v2v2v1v2v2v2v1v2v2v2v1v2v2v2v1v2v2v2v1v2v2v2v1v2v2v2v1v2v2v2v2v1v2v2v2v1v2v2v2v2v1v2v2v2v1v2v2v2v2v1v2v2v2v2v1v2v2v2v2v1v2v2v2v2v1v2v2v2v2v1v2v2v2v2v1v2v2v2v2v1v2v2v2v2v2v1v2 v2v2v2v2v1v2v2v2v2v2v1v2v2v2v2v2v1v2v2v2v2v2v1v2v2v2v2v2v2v1v2v2v2v2v2v2v2v1v2v2v2v2v2v2v1v2v2v2v2v2v2v2v1v2v2v2v2v2v2v2v2v1v2v2v2v2v2v2v2v2v2v1v2v2v2v2v2v2v2v2v2v2v1v2v2v2v2v2v2v2v2v2v2v1v9q0 8 -3 10t-13 2h-98q-4 0 -7 0.5t-5 1.5t-2.5 3.5t-0.5 3v5v5.5v51 q0 6 10 6h238q14 0 14 -14v-1v-1v-1v-1v-1v-1v-1v-1v-1v-1v-1v-1v-1v-1v-1v-1v-1v-1v-1v-1v-1v-1v-1v-1v-1v-1v-1v-1v-1v-1v-1v-1v-1v-1v-1v-1v-1v-1v-1v-1v-1v-1v-1v-1v-1v-1v-1v-1v-1v-1v-1v-1v-1v-1v-1v-1v-1v-1v-1v-1v-1v-1v-1v-1v-1v-1v-1v-1v-1v-1v-1v-1v-1v-1v-1v-1 v-1v-1v-1v-1v-1v-1v-1v-1v-1v-1v-1v-1v-1v-1v-1v-1v-1v-1v-1v-1v-1v-1v-1v-1v-1v-1v-1v-1v-1v-1v-1v-1v-1v-1v-1v-1v-1v-1v-1v-1v-1v-1v-1v-1v-1v-1v-1v-1v-1v-1v-1v-1v-1v-1v-1v-1v-1v-1v-1v-1v-1v-1v-1v-1v-1v-1v-1v-1v-1v-1v-1v-1v-1v-1v-1v-1v-1v-1v-1v-1v-1v-1v-1v-1 v-1v-1v-1v-1v-1v-1v-1v-1v-1v-1v-1v-1v-1v-1v-1v-1v-1v-1v-1v-1v-1v-1v-1v-1v-1v-1v-1v-1v-1v-1v-1v-1v-1v-1v-1v-1v-1v-1v-1v-1v-1v-1v-1v-1v-1v-1v-1v-1v-1v-1v-1v-1v-1v-1v-1v-1v-1v-1v-1v-1v-1v-1v-1v-1v-1v-1v-1v-1v-1v-1v-1v-1v-1v-1v-1v-1v-1v-1v-1v-1v-1v-1v-1v-1 v-1v-1v-1v-1v-1v-1v-1v-1v-1v-1v-1v-1v-1v-1v-1v-1v-1v-1v-1v-1v-1v-1v-1v-1v-1v-1v-1v-1v-1v-1v-1v-1v-1v-1v-1v-1v-1v-1v-1v-1v-1v-1v-2v-1v-1v-1v-1v-1v-1v-1v-1v-1v-1v-1v-1v-1v-1v-1v-1v-1v-1v-1v-2v-1v-1v-1v-1v-1v-1v-1v-1v-1v-1v-1v-1v-2v-1v-1v-1v-1v-1v-1v-1v-1 v-1v-1v-2v-1v-1v-1v-1v-1v-1v-1v-1v-1v-2v-1v-1v-1v-1v-1v-1v-1v-1v-2v-1v-1v-1v-1v-1v-1v-1v-2v-1v-1v-1v-1v-1v-1v-2v-1v-1v-1v-1v-1v-1v-2v-1v-1v-1v-1v-1v-2v-1v-1v-1v-1v-1v-1v-2v-1v-1v-1v-1v-1v-2v-1v-1v-1v-1v-2v-1v-1v-1v-1v-1v-2v-1v-1v-1v-1v-2v-1v-1v-1v-1v-2 v-1v-1v-1v-1v-2v-1v-1v-1v-1v-2v-1v-1v-1v-1v-2v-1v-1v-1v-1v-2v-1v-1v-1v-2v-1v-1v-1v-2v-1v-1v-1v-1v-2v-1v-1v-1v-2v-1v-1v-1v-2v-1v-1v-1v-2v-1v-1v-1v-2v-1v-1v-1v-2v-1v-1v-1v-2v-1v-1v-1v-2v-1v-1v-2v-1v-1v-1v-2v-1v-1v-1v-2v-1v-1v-2v-1v-1v-1v-2v-1v-1v-2v-1v-1 v-1v-2v-1v-1v-2v-1v-1v-1v-2v-1v-1v-2v-1v-1v-2v-1v-1v-2v-1v-1v-1v-2v-1v-1v-2v-1v-1v-2v-1v-1v-2v-1v-1v-2v-1v-1v-2v-1v-1v-2v-1v-1v-2v-1v-1v-2v-1v-1v-2v-1v-1v-2v-1v-1v-2v-1v-1v-2v-1v-2v-1v-1v-2v-1v-1v-2v-1v-1v-2v-1v-1v-2v-1v-2v-1v-1v-2v-1v-1v-2v-1v-2v-1v-1 v-2v-1v-1v-2v-1v-2v-1v-1v-2v-1v-2v-1v-1v-2v-1v-1v-2v-1v-2v-1v-1v-2v-1v-2v-1v-1v-2v-1v-2v-1v-1v-2v-1v-2v-1v-2v-1v-1v-2v-1v-2v-1v-1v-2v-1v-2v-1v-2v-1v-1v-2v-1v-2v-1v-2v-1v-1v-2v-1v-2v-1v-2v-1v-2v-1v-1v-2v-1v-2v-1v-2v-1v-1v-2v-1v-2v-1v-2v-1v-2v-1v-2v-1v-1 v-2v-1v-2v-1v-2v-1v-2v-1v-2v-1v-2v-1v-2v-1v-1v-2v-1v-2v-1v-2v-1v-2v-1v-2v-1v-2v-1v-2v-1v-2v-1v-2v-1v-2v-1v-2v-1v-2v-1v-2v-1v-2v-1v-2v-1v-2v-1v-2v-1v-2v-1v-2v-1v-2v-1v-2v-1v-2v-1v-2v-1v-2v-1v-2v-1v-2v-1v-2v-1v-2v-1v-2v-1v-2v-1v-2v-2v-1v-2v-1v-2v-1v-2v-1 v-2v-1v-2v-1v-2v-1v-2v-2v-1v-2v-1v-2v-1v-2v-1v-2v-1v-2v-2v-1v-2v-1v-2v-1v-2v-1v-2v-2v-1v-2v-1v-2v-1v-2v-1v-2v-2v-1v-2v-1v-2v-1v-2v-2v-1v-2v-1v-2v-1v-2v-2v-1v-2v-1v-2v-2v-1v-2v-1v-2v-1v-2v-2v-1v-2v-1v-2v-2v-1v-2v-1v-2v-2v-1v-2v-1v-2v-2v-1v-2v-1v-2v-2v-1 v-2v-1v-2v-2v-1v-2v-1v-2v-2v-1v-2v-2v-1v-2v-1v-2v-2v-1v-2v-2v-1v-2v-1v-2v-2v-1v-2v-2v-1v-2v-1v-2v-2v-1v-2v-2v-1v-2v-2v-1v-2v-1v-2v-2v-1v-2v-2v-1v-2v-2v-1v-2v-2v-1v-2v-2v-1v-2v-2v-1v-2v-2v-1v-2v-1v-2v-2v-1v-2v-2v-1v-2v-2v-1v-2v-2v-1v-2v-2v-2v-1v-2v-2v-1 v-2v-2v-1v-2v-2v-1v-2v-2v-1v-2v-2v-1v-2v-2v-1v-2v-2v-2v-1v-2v-2v-1v-2v-2v-1v-2v-2v-2v-1v-2v-2v-1v-2v-2v-1v-2v-2v-2v-1v-2v-2v-1v-2v-2v-2v-1v-2v-2v-1v-2v-2v-2v-1v-2v-2v-2v-1v-2v-2v-1v-2v-2v-2v-1v-2v-2v-2v-1v-2v-2v-2v-1v-2v-2v-1v-2v-2v-2v-1v-2v-2v-2v-1v-2 v-2v-2v-1v-2v-2v-2v-1v-2v-2v-2v-1v-2v-2v-2v-2v-1v-2v-2v-2v-1v-2v-2v-2v-1v-2v-2v-2v-1v-2v-2v-2v-2v-1v-2v-2v-2v-1v-2v-2v-2v-2v-1v-2v-2v-2v-2v-1v-2v-2v-2v-2v-1v-2v-2v-2v-2v-1v-2v-2v-2v-2v-1v-2v-2v-2v-2v-1v-2v-2v-2v-2v-1v-2v-2v-2v-2v-1v-2v-2v-2v-2v-2v-1v-2 v-2v-2v-2v-2v-1v-2v-2v-2v-2v-2v-1v-2v-2v-2v-2v-2v-1v-2v-2v-2v-2v-2v-1v-2v-2v-2v-2v-2v-2v-1v-2v-2v-2v-2v-2v-2v-1v-2v-2v-2v-2v-2v-2v-1v-2v-2v-2v-2v-2v-2v-2v-1v-2v-2v-2v-2v-2v-2v-2v-1v-2v-2v-2v-2v-2v-2v-2v-2v-1v-2v-2v-2v-2v-2v-2v-2v-2v-2v-1v-2v-2v-2v-2v-2 v-2v-2v-2v-2v-2v-1v-2v-2v-2v-2v-2v-2v-2v-2v-2v-2v-1v-2v-2v-2v-2v-9q0 -17 -18 -17h-1h-1h-1h-1h-1h-1h-1h-1h-1h-1h-1h-1h-1h-1h-1h-1h-1h-1h-1h-1h-1h-1h-1h-1h-1h-1h-1h-1h-1h-1h-1h-1h-1h-1h-1h-1h-1h-1h-1h-1h-1h-1h-1h-2h-1h-1h-1h-1h-1h-1h-1h-1h-2h-1h-1h-1h-1h-1 h-2h-1h-1h-1h-2h-1h-1h-1h-2h-1h-1h-1h-2h-1h-1h-2h-1h-1h-2h-1h-1h-2h-1h-1h-2h-1h-2h-1h-1h-2h-1h-2h-1h-2h-1h-2h-1h-1h-2h-1h-2h-1h-2h-1h-2h-1h-2h-1h-2h-2h-1h-2h-1h-2h-1h-2h-2h-1h-2h-1h-2h-2h-1h-2h-1h-2h-2h-1h-2h-2h-1h-2h-2h-1h-2h-2h-2h-1h-2h-2h-1h-2h-2h-2 h-1h-2h-2h-2h-1h-2h-2h-2h-2h-1h-2h-2h-2h-2h-1h-2h-2h-2h-2h-1h-2h-2h-9q-10 0 -10 11v55v3v3z" />
<glyph unicode="^" horiz-adv-x="1132" d="M307 1473q-9 17 2 26l236 168q12 8 20 6q10 3 23 -6l233 -168q13 -9 4 -26l-41 -58q-10 -16 -18 -8l-168 129q-9 9 -18 12q-8 4 -15 4q-2 0 -14 -4q-9 -5 -19 -12l-165 -129q-9 -6 -21 8z" />
<glyph unicode="_" horiz-adv-x="1222" d="M199 25v55q2 33 14 33h788q6 0 14.5 -5t8.5 -10v-84q0 -5 -7.5 -9.5t-12.5 -4.5h-787q-5 0 -9.5 6t-6.5 12z" />
<glyph unicode="`" horiz-adv-x="1187" d="M412 1618l53 90q4 8 9.5 8.5t9.5 -2.5l3 -4q11 -19 21 -27l264 -229q11 -11 2 -20l-29 -37q-6 -7 -9.5 -9t-8.5 2.5t-6 4.5l-293 194q-24 16 -16 29z" />
<glyph unicode="a" horiz-adv-x="1372" d="M23 6l589 1247q12 23 25 23h96q15 0 23 -23l594 -1239q2 -4 2 -7q0 -7 -11 -7h-118q-18 0 -29 25l-127 270q-8 20 -25 20l-714 2q-14 0 -25 -22l-115 -246q-2 -5 -8 -18.5t-12 -24.5q-3 -6 -37 -6h-104q-5 0 -5 3q0 1 1 3zM373 449q-2 -6 -2 -10q0 -7 8 -7h596 q18 0 18 12q0 6 -4 15l-293 626q-4 13 -12 13q-4 0 -5.5 -2t-3.5 -7.5t-3 -7.5z" />
<glyph unicode="b" horiz-adv-x="1396" d="M197 25v1239q0 5 4 9.5t10 4.5h596q186 0 292 -88.5t111 -212.5v-7q0 -50 -14 -96q-14 -48 -38.5 -80.5t-38.5 -46.5t-27 -24q-15 -12 -5 -18q100 -44 152 -128t55 -188v-11q0 -66 -23 -130q-25 -68 -73.5 -124t-127.5 -90t-177 -34h-670q-26 0 -26 25zM328 137 q0 -7 5 -12.5t13 -5.5h547q120 0 188 76.5t68 179.5q0 102 -67 176t-189 74h-549q-7 0 -11.5 -5.5t-4.5 -11.5v-471zM328 764q0 -7 4.5 -13t11.5 -6h490q97 0 164 59.5t67 147.5q0 95 -65.5 150t-192.5 55h-467q-12 0 -12 -16v-377z" />
<glyph unicode="c" horiz-adv-x="1462" d="M102 631q0 203 89 359.5t243 240.5t348 84q113 0 211.5 -27.5t164.5 -72t107 -99.5t50 -112q2 -3 0.5 -13.5t-8.5 -13.5l-88 -31q-16 -5 -25 23q-12 41 -42.5 79t-79 71.5t-124 54t-166.5 20.5q-249 0 -396.5 -157t-147.5 -406q0 -107 32.5 -197t87 -152t126.5 -105 t150.5 -63t160.5 -20q84 0 161.5 24t133 62.5t94 79t59.5 80.5q9 17 27 14l86 -12q10 0 14 -13q1 -5 1 -10q0 -6 -3 -10q-58 -136 -220.5 -237t-352.5 -101q-96 0 -190.5 22.5t-186 73.5t-161 125.5t-112.5 188t-43 250.5z" />
<glyph unicode="d" horiz-adv-x="1486" d="M199 39v1192q0 47 43 47h569q83 0 160.5 -19.5t152 -66.5t130 -117t89 -178.5t33.5 -243.5q0 -141 -35.5 -255t-92.5 -186.5t-132.5 -121.5t-151 -69.5t-153.5 -20.5h-586q-11 0 -18.5 10.5t-7.5 28.5zM330 152q0 -16 6 -20.5t18 -4.5h457q58 0 115 15t116 53t103 96 t72 151.5t28 210.5q0 92 -17.5 168.5t-49.5 130t-73 93t-90.5 62.5t-100 33.5t-103.5 10.5h-453q-10 0 -15 -1t-9 -7t-4 -19v-972z" />
<glyph unicode="e" horiz-adv-x="1232" d="M197 35v1210q0 13 8 23t20 10h910q12 0 12 -14l-10 -95q-3 -14 -17 -14h-770q-10 0 -16 -9.5t-6 -21.5v-389q0 -26 16 -26h567q13 0 13 -13v-94q0 -14 -13 -14h-565q-18 0 -18 -15v-428q0 -15 2.5 -18.5t15.5 -3.5h774q14 0 19 -19l12 -73q1 -6 1 -10q0 -21 -22 -21h-911 q-22 0 -22 35z" />
<glyph unicode="f" horiz-adv-x="1302" d="M197 14v1235q0 12 7 20.5t19 8.5h1014q6 0 10 -6q3 -4 3 -8q0 -2 -1 -4l-8 -91q-3 -14 -18 -14h-875q-20 0 -20 -25v-401q0 -20 14 -20h676q10 0 10 -11v-100q0 -12 -10 -12h-674q-16 0 -16 -17v-557q0 -4 -4 -8t-9 -4h-108q-10 0 -10 14z" />
<glyph unicode="g" horiz-adv-x="1507" d="M104 621q0 194 76.5 350.5t217 248t319.5 95.5h28q105 0 193 -20q100 -23 165.5 -60.5t113.5 -89.5t72 -101.5t34 -101.5q5 -14 -8 -20l-98 -29q-6 -1 -12.5 4t-6.5 10q-6 36 -27 75t-61.5 79.5t-93.5 71t-131 48.5q-61 14 -129 14q-19 0 -39 -1q-217 -12 -348 -172.5 t-131 -392.5q0 -129 39.5 -232.5t108.5 -170.5t160.5 -102.5t196.5 -35.5q196 0 333 117.5t161 298.5q2 3 -2 7.5t-10 4.5h-471q-9 0 -13 12l-12 97q0 10 8 10q334 -2 496 -2l135 4q16 2 16 -12v-602q0 -13 -5 -18t-19 -5h-72q-10 0 -13 0.5t-7 5.5t-4 17v198q0 25 0 24 q-1 3 -4 1q-6 0 -13 -17q-72 -124 -199.5 -191t-304.5 -67q-155 0 -280 56t-201.5 149t-117 207t-40.5 238z" />
<glyph unicode="h" horiz-adv-x="1576" d="M195 18v1242q0 7 0.5 10t3 5.5t8.5 2.5h104q15 0 15 -18v-533q0 -18 16 -18h891q14 0 14 20v528q0 12 3.5 16.5t15.5 4.5h96q10 0 13 -4t3 -17v-1239q0 -18 -16 -18h-100q-15 0 -15 20v537q0 21 -14 21h-891q-8 0 -11.5 -1.5t-4 -5t-0.5 -12.5v-541q0 -18 -19 -18h-94 q-18 0 -18 18z" />
<glyph unicode="i" horiz-adv-x="526" d="M197 20v1229q0 29 20 29h90q23 0 23 -25v-1222q0 -22 -4 -26.5t-19 -4.5h-90q-20 0 -20 20z" />
<glyph unicode="j" horiz-adv-x="1210" d="M43 135l39 113q6 13 16 0q62 -71 154 -110.5t201 -39.5q197 0 323.5 116.5t126.5 324.5v721q0 16 17 16h98q16 0 16 -19v-718q0 -135 -46.5 -245t-126.5 -180.5t-185 -108.5t-223 -38q-115 0 -220 36.5t-182 105.5q-9 8 -9 18q0 4 1 8z" />
<glyph unicode="k" horiz-adv-x="1290" d="M197 14v1248q0 10 2 13t12 3h104q8 0 10.5 -2.5t2.5 -9.5v-502l561 467q53 47 59 47h166q20 0 21 -4q0 -2 -2 -4q-3 -4 -17.5 -15t-17.5 -14q-545 -444 -627 -510q-10 -10 0 -10q56 -6 114 -43t109.5 -91.5t102 -119.5t97.5 -129.5t89.5 -118.5t85.5 -90t78 -41 q24 -3 45 -3q42 0 72 13q10 3 11.5 1.5t1.5 -6.5q-1 -3 -1 -5l-14 -88q0 -2 -0.5 -6t-1 -5.5t-1 -4t-2.5 -3.5t-5 -3t-7 -3q-38 -15 -79 -15q-28 0 -58 7q-60 14 -118 58.5t-106 104t-97 128t-98.5 133t-101.5 117.5q-51 52 -115 82q-54 25 -112 25q-10 0 -20 -1 q-12 -4 -12 -16v-582q0 -12 -2 -14t-13 -2h-100q-11 0 -13.5 2t-2.5 12z" />
<glyph unicode="l" horiz-adv-x="1083" d="M197 20v1242q0 6 0.5 9t4.5 5t13 2h100q15 0 15 -14v-1106q0 -14 0.5 -18t5 -6.5t16.5 -2.5h588q16 0 80 8q5 1 7.5 0t4 -3.5t2.5 -8.5l6 -109q0 -14 -2 -16t-12 -2h-94h-715q-20 0 -20 20z" />
<glyph unicode="m" horiz-adv-x="1474" d="M197 18v1244q0 18 12 18l80 2h5q8 0 11.5 -1.5t9.5 -8.5q248 -316 402 -488q9 -12 18 -12q12 0 21 12q68 76 168.5 198t166.5 206l66 84q1 2 3 4.5t2.5 3l2 2t4 1.5h6t9.5 -1l78 -4q16 -2 16 -23v-1235q0 -20 -18 -20h-105q-14 0 -14 16v1012q0 12 -4.5 12t-8.5 -6 q-17 -19 -143.5 -176.5t-212.5 -255.5q-12 -18 -37 -18q-23 0 -35 18q-86 98 -212.5 255.5t-143.5 176.5q-4 6 -8 6t-4 -12v-1008q0 -9 -3.5 -14t-6.5 -5.5t-9 -0.5h-102q-5 0 -7.5 0.5t-4.5 4.5t-2 13z" />
<glyph unicode="n" horiz-adv-x="1523" d="M197 20v1221q0 24 4.5 30.5t17.5 6.5l68 6q10 2 16 2q5 0 7 -1q6 -2 20 -19l827 -1000q16 -22 27 -22q12 0 12 24v987q0 14 5.5 18.5t23.5 4.5h80q14 0 18 -6.5t4 -22.5v-1229q1 -20 -5 -24q-4 -3 -13 -3q-4 0 -9 1l-61 4q-2 0 -7.5 0.5t-7 1t-5.5 1.5t-7 3.5t-7.5 7 t-10.5 11.5l-832 1003q-18 23 -22 23q-9 0 -10.5 -5t-1.5 -20v-8v-996q0 -20 -21 -20h-94q-10 0 -13 4.5t-3 15.5z" />
<glyph unicode="o" horiz-adv-x="1599" d="M98 643q0 184 95 339t256 244t350 89q142 0 271.5 -52.5t224 -142t150.5 -214.5t56 -263q0 -137 -56 -262t-150.5 -214.5t-224 -142.5t-271.5 -53q-189 0 -350 89.5t-256 244.5t-95 338zM233 643q0 -108 44.5 -207t120 -171.5t180.5 -115.5t221 -43q155 0 285.5 72.5 t206 196.5t75.5 268t-75.5 268t-206 196.5t-285.5 72.5q-116 0 -221 -43t-180.5 -115.5t-120 -171.5t-44.5 -207z" />
<glyph unicode="p" horiz-adv-x="1284" d="M197 20v1219q0 21 6.5 29t23.5 8h588q81 0 149 -19.5t114.5 -52t78.5 -77t47 -93.5t15 -102q0 -153 -105 -250.5t-272 -97.5h-484q-13 0 -20.5 -10t-7.5 -23v-526q0 -17 -4.5 -21t-16.5 -4h-92q-20 0 -20 20zM330 731q0 -12 8 -21.5t20 -9.5h457q126 0 197.5 68t74.5 162 v5q0 91 -70 157q-72 69 -202 69h-463q-9 0 -15.5 -7.5t-6.5 -16.5v-406z" />
<glyph unicode="q" horiz-adv-x="1622" d="M92 643q0 184 95 339t256 244t350 89q142 0 271.5 -52.5t224 -142t150.5 -214.5t56 -263q0 -156 -71.5 -292.5t-194.5 -231.5q-17 -17 0 -29q90 -51 170 -51q20 0 35 2t28 7.5t19.5 9t19.5 12.5t17 12t7.5 4t5.5 0.5t3 -2.5q1 -1 1 -3q0 -3 -3 -7l-64 -133 q-11 -22 -57 -29q-20 -4 -61 -4q-61 4 -120 34t-136 83q-12 8 -29 0q-120 -54 -272 -54q-189 0 -350 89.5t-256 244.5t-95 338zM227 643q0 -260 219 -418q5 -4 12.5 -5t11.5 0l5 1q69 71 154 108.5t157 39.5q42 0 80 -9t64 -20.5t54.5 -33t43 -34.5t38 -37.5t30.5 -31.5 q9 -9 22 0q116 72 179 186.5t63 253.5q0 144 -75.5 268t-206 196.5t-285.5 72.5q-116 0 -221 -43t-180.5 -115.5t-120 -171.5t-44.5 -207zM614 137q82 -33 181 -33h17q79 0 153 25q16 5 16 13q0 5 -8 12q-4 3 -25.5 20t-27.5 21.5t-25 16.5t-31.5 15.5t-31.5 8t-39 4.5 q-47 0 -99 -19t-88 -51q-11 -11 -11 -18q0 -8 19 -15z" />
<glyph unicode="r" horiz-adv-x="1335" d="M197 23v1218q0 26 5 31.5t27 5.5h543q205 0 305.5 -87t100.5 -249q0 -126 -67 -211t-177 -115q-17 -3 -2 -18q46 -31 80 -119q8 -19 30 -74t36 -89.5t35 -79.5t38 -74q40 -64 106 -80q12 -2 12 -13q0 -6 -3 -14l-29 -65l-7 -14q-3 -4 -8 -6q-4 -2 -9 -1h-5 q-109 15 -166 113q-23 37 -92 191t-84 192q-19 47 -70.5 84t-117.5 37h-320q-11 0 -15.5 -1t-8.5 -6.5t-4 -17.5v-536q0 -15 -4.5 -20t-18.5 -5h-86q-24 0 -24 23zM330 733q0 -20 6.5 -25.5t30.5 -5.5h403q118 0 197.5 62t79.5 172q0 109 -63.5 167t-219.5 58h-412 q-14 0 -18 -5t-4 -19v-404z" />
<glyph unicode="s" horiz-adv-x="1214" d="M111 174q-14 16 -14 29t14 24l53 43q8 7 14 9.5t10 1t6 -3.5t6 -8t7 -9q166 -156 403 -156q146 0 238 50q68 36 101.5 90t33.5 110q0 102 -92 168q-82 59 -281 103q-194 45 -291 96q-75 36 -127.5 103.5t-52.5 162.5q0 79 46 149t124 113q119 66 303 66q170 0 297 -58 q97 -41 152 -110q18 -23 -10 -45l-52 -43q-24 -16 -45 10v-2q-32 44 -127 80q-110 43 -219 43q-139 0 -227 -43q-54 -28 -81.5 -69t-27.5 -87q0 -34 13.5 -64t34 -49.5t37 -31t30.5 -17.5q150 -53 234 -73q217 -48 340 -125q155 -103 155 -271q0 -139 -94 -241 q-138 -148 -412 -148q-132 0 -273.5 52.5t-225.5 150.5z" />
<glyph unicode="t" horiz-adv-x="1001" d="M90 1178v86q0 10 1.5 12t10.5 2h789q16 0 16 -12v-92q0 -15 -18 -15h-307q-17 0 -17 -22v-1117q0 -14 -2.5 -17t-13.5 -3h-98q-19 0 -19 20v1117q0 8 -4.5 15t-11.5 7h-310q-8 0 -11.5 1.5t-4 5t-0.5 12.5z" />
<glyph unicode="u" horiz-adv-x="1511" d="M174 547v723q0 12 6 16q4 2 10 3q4 0 9 -1l86 -14q13 -3 16.5 -9.5t3.5 -25.5v-692q0 -140 61 -242t161.5 -151.5t228.5 -49.5t228.5 49.5t161 151.5t60.5 242v700q0 24 17 27l94 14h5q15 0 15 -18v-723q0 -136 -46.5 -246.5t-126.5 -181t-185 -108.5t-223 -38t-223 38 t-185.5 108.5t-127 181t-46.5 246.5z" />
<glyph unicode="v" horiz-adv-x="1271" d="M53 1274q0 5 4 7q3 1 7 1h4l112 -8q6 -1 10.5 -2t7 -1.5t4.5 -3.5t3 -4t3 -7.5t3 -8.5l403 -989q10 -25 23 -29q10 4 20 29l406 999q10 17 24 17l117 8h6q12 0 12 -4q0 -2 -8 -21l-507 -1210q0 -1 -2 -5.5t-3 -6.5l-3 -6t-3.5 -6t-3.5 -6t-4 -6l-4.5 -4.5t-4.5 -3.5 t-5 -2t-6 -1h-64q-3 0 -6 1t-5 2t-4.5 3.5l-4.5 4.5t-4 6t-3.5 6t-3.5 6l-3 6t-3 6.5t-2 5.5l-504 1200l-6 16.5t-2 10.5z" />
<glyph unicode="w" horiz-adv-x="1892" d="M82 1280l106 10q8 1 12 1t4 -1q1 -1 5 -14l321 -1057q3 -10 12 -8t11 10l332 1041q5 14 19 14h4h5h78q2 0 8 0.5t7.5 0t5 -2t5 -4.5t3.5 -8l311 -1041q2 -8 11 -10t12 8l334 1057q1 3 1.5 6t1 4t1.5 2.5t3 2t5.5 0.5t9.5 -1l105 -10q11 -2 13 -6q1 -2 1 -7q0 -6 -2 -16 l-404 -1235q-8 -16 -18 -16h-127q-18 0 -21 14l-301 994q-2 12 -8 12q-4 0 -6 -5q-1 -4 -2 -7l-311 -994q-6 -14 -21 -14h-127q-5 0 -11 5t-7 11l-395 1241q-6 18 -6 20t20 3z" />
<glyph unicode="x" horiz-adv-x="1345" d="M31 27l532 620q21 25 21 33q0 5 -1 6.5t-4 5.5l-6 8l-473 553q-21 24 21 29l92 8q22 4 41 -18l397 -473q12 -15 21 -17q10 2 16 11l414 483q15 17 36 17q5 0 11 -1l98 -14q13 -2 16.5 -6.5t1 -9.5t-9.5 -13l-477 -555q-10 -12 -10 -20q0 -10 20 -33l527 -623q7 -11 7 -15 q0 -3 -15 -3h-4h-111h-10h-8t-6 0.5t-6 2.5t-5.5 5t-7.5 8l-453 533q-13 16 -20 16q-8 0 -21 -16l-454 -529q-12 -14 -19.5 -17t-31.5 -3h-107q-22 0 -22 10q0 6 10 17z" />
<glyph unicode="y" horiz-adv-x="1239" d="M29 1268q-8 12 -8 18q0 8 12 6l123 -4q7 0 10.5 -0.5t6.5 -2t4 -3t3.5 -6t5.5 -8.5l392 -561q18 -27 28 -39.5t12.5 -13.5t6.5 -1q11 0 47 54l377 563q1 2 3 5q8 13 12 13q2 1 8 0h11l123 6q7 0 10.5 -1t3.5 -3.5t-1 -4.5t-3.5 -5t-3.5 -4l-493 -729q-4 -6 -9.5 -14.5 t-8.5 -13t-5 -10t-2 -11.5v-473q0 -18 -4 -21.5t-18 -3.5h-99q-9 0 -12.5 1t-6.5 6t-3 16v475q0 18 -21 49z" />
<glyph unicode="z" horiz-adv-x="1277" d="M99 99.5q0 3.5 0.5 8t3 8.5t6.5 9l835 997q3 6 2.5 14.5t-6.5 8.5h-784q-16 0 -22 5t-9 24l-16 75q-3 18 3 23.5t31 5.5h985q14 0 18.5 -5t6.5 -20l4 -51q3 -21 0.5 -30.5t-12.5 -22.5l-842 -1008q-2 -1 -1.5 -5.5t3.5 -4.5h840q27 -1 31 -7q1 -3 1 -8q0 -9 -3 -24 l-7 -57q-1 -5 -1.5 -12.5t-0.5 -9.5t-2 -6t-3.5 -4.5t-7.5 -1.5t-11 -1h-17h-993q-9 0 -15 1t-9.5 1.5t-5 5l-2 6t0 10t0.5 11.5v43q0 5 -0.5 11.5t-0.5 10z" />
<glyph unicode="{" horiz-adv-x="636" d="M59 639q0 31 7 47.5t26 22.5l129 47q30 11 38.5 21.5t8.5 37.5v555q0 55 43 89t103 34h123q10 0 10 -6v-51v-5v-4t-0.5 -3.5t-1 -3t-2.5 -1.5t-4.5 -1.5t-6.5 -0.5h-61q-28 0 -49 -16.5t-21 -50.5v-559q0 -68 -59 -86l-115 -41q-12 -5 -12 -17q0 -6 3 -9.5t6 -3.5l3 -1 l109 -29q23 -6 44 -30.5t21 -65.5v-571q0 -32 22 -45t40 -13h69q11 0 13 -1.5t2 -8.5v-55q0 -11 -10 -11h-119q-71 0 -110.5 36.5t-39.5 80.5v549q0 5 0.5 15t0 13.5t-1.5 10t-4 9.5t-8.5 7t-14.5 6l-146 41q-35 10 -35 68z" />
<glyph unicode="|" horiz-adv-x="462" d="M180 -498v2241h103v-2241h-103z" />
<glyph unicode="}" horiz-adv-x="636" d="M90 -129q0 4 0.5 5t4 2t11.5 1h70q8 0 20.5 3.5t26 18t13.5 36.5v571q0 41 21 65.5t44 30.5l109 29q12 0 12 14q0 5 -3 9.5t-6 5.5l-3 2l-115 41q-59 18 -59 86v559q0 34 -20.5 50.5t-49.5 16.5h-60q-8 0 -11.5 2t-4 5t-0.5 9v3v51q0 6 12 6h123q58 0 101 -34t43 -89 v-555q0 -27 9 -37.5t38 -21.5l129 -47q20 -6 26.5 -22t6.5 -48q0 -58 -35 -68l-146 -41q-10 -3 -16 -6t-9 -11t-3.5 -10.5t0 -16t0.5 -17.5v-549q0 -44 -39.5 -80.5t-110.5 -36.5h-119q-10 0 -10 11v55v2z" />
<glyph unicode="&#xa2;" horiz-adv-x="1282" d="M141 633q0 236 148 382t377 148l36 211q0 2 1 5q3 19 10 21l18 1h76q11 0 16 -2t6.5 -3t-0.5 -8.5t-2 -9.5l-41 -227q123 -24 202.5 -91t92.5 -145q0 -29 -18 -36q-6 -2 -20.5 -8.5t-24.5 -10t-22.5 -5t-21 5.5t-13.5 22q-14 47 -63 88.5t-132 58.5l-139 -780 q16 -2 49 -2q117 0 200 50.5t121 123.5q6 12 21 16.5t27.5 3.5t31 -4.5t23.5 -3.5q18 -3 22 -22t-2 -25q-46 -107 -172 -184.5t-272 -77.5q-47 0 -72 4l-35 -199q-1 -2 -1.5 -5.5t-1 -5t-1.5 -4t-2.5 -3.5t-4 -2.5t-6.5 -2t-9.5 -1t-12.5 -0.5h-75q-10 0 -12 3t1 15 q1 8 2 13l39 217q-71 23 -130.5 62t-108.5 96.5t-77 140t-28 180.5zM272 633q0 -128 66.5 -218t169.5 -134l135 759q-170 -9 -270.5 -125.5t-100.5 -281.5z" />
<glyph unicode="&#xa3;" horiz-adv-x="1359" d="M147 74q-3 5 0.5 13.5t16.5 12.5q53 19 117 29q41 6 43 27l49 407q1 4 -2.5 8t-8.5 4h-86q-15 0 -18 29l-6 78q1 9 5.5 15t8.5 8t6 2h107q10 0 14 12l37 315q8 61 32 110t57.5 81t77 53.5t87.5 30.5t92 10q89 3 162 -31q36 -14 27 -41l-37 -90q-2 -5 -4.5 -7t-5 -0.5 t-5 4t-6.5 6t-8 5.5q-59 35 -149 35q-30 0 -58.5 -10.5t-56.5 -32.5t-48 -64t-26 -98l-33 -276q-1 -4 2.5 -8t6.5 -4h251q29 0 29 -15l2 -100q-3 -17 -28 -17h-269q-10 0 -14 -12l-47 -403q-6 -27 18 -27h68h315q207 0 322 82q3 2 6 0.5t5 -6.5t3 -14l10 -93q3 -27 -24 -41 q-106 -61 -326 -61h-426q-150 0 -235 -27q-13 -7 -20.5 -3t-9.5 6t-4 11.5t-3 12.5q-2 7 -6 34t-7 40z" />
<glyph unicode="&#xa5;" horiz-adv-x="1419" d="M160 1268q-18 27 4 24l123 -4h6.5t5 -0.5t4 -0.5t3 -1t2.5 -2t2 -3t2 -3.5t2.5 -4.5l2.5 -5l351 -561q14 -23 21 -33.5t14 -15.5t8.5 -5h11.5q4 0 14 13t17 26l8 13l336 565q1 1 1 2q10 16 15 16q2 1 8 0h11l122 6q11 0 13.5 -2.5t-2.5 -9.5l-4 -6l-287 -461h211 q7 0 15.5 -4.5t8.5 -9.5v-82q0 -6 -7.5 -10t-14.5 -4h-281l-88 -142h367q7 0 15.5 -4.5t8.5 -9.5v-82q0 -6 -7.5 -10t-14.5 -4h-404v-428q0 -18 -4 -21.5t-18 -3.5h-98q-9 0 -12.5 1t-7 6t-3.5 16v430h-410q-5 0 -9.5 6t-6.5 12l-2 6v53q4 33 16 33h381l-90 142h-289 q-5 0 -9.5 6t-6.5 12l-2 6v53q4 33 16 33h222z" />
<glyph unicode="&#xa8;" horiz-adv-x="1120" d="M268 1565q0 37 25.5 62.5t60.5 25.5q37 0 62.5 -25.5t25.5 -62.5q0 -36 -26 -62t-62 -26q-35 0 -60.5 26.5t-25.5 61.5zM678 1565q0 37 25.5 62.5t60.5 25.5q37 0 62.5 -25.5t25.5 -62.5q0 -36 -26 -62t-62 -26q-35 0 -60.5 26.5t-25.5 61.5z" />
<glyph unicode="&#xa9;" horiz-adv-x="1644" d="M152 643q0 137 53 261t142 214.5t213 143.5t261 53t262 -53t214.5 -143.5t142.5 -214.5t53 -261t-53 -261t-142.5 -214.5t-214.5 -143.5t-262 -53t-261 53t-213 143.5t-142 214.5t-53 261zM240 643q0 -158 77.5 -292t211.5 -212t292 -78t292.5 77.5t213 212t78.5 292.5 t-78.5 292.5t-213 212t-292.5 77.5t-292 -78t-211.5 -212t-77.5 -292zM451 637q0 176 110.5 285.5t280.5 109.5q65 0 129.5 -18t120.5 -65t65 -115q5 -24 -8 -29q-6 -3 -33 -12q-4 -1 -17.5 -5.5t-19.5 -5.5q-16 -2 -24 3.5t-15 25.5q-11 40 -61 72t-137 32 q-122 0 -195.5 -80t-73.5 -198q0 -64 25.5 -116.5t67 -83.5t89 -47.5t95.5 -16.5q52 0 92 12t65.5 33.5t38 38t25.5 39.5t39 16l72 -10q13 -3 16.5 -7.5t-0.5 -15.5q0 -2 -1 -4.5t-1 -3.5q-33 -86 -134 -150.5t-212 -64.5q-54 0 -108.5 13t-107 42t-93 72t-65.5 108.5 t-25 145.5z" />
<glyph unicode="&#xab;" horiz-adv-x="1026" d="M90 631q-17 21 2 43q305 326 307 330q3 3 8 4.5t8.5 0.5t6.5 -2l4 -1l55 -39q7 -5 10 -9t3 -6.5t-2 -3.5l-242 -266q-8 -12 -10 -16q-7 -7 -7 -13q0 -7 7 -14q7 -14 10 -18l221 -287q7 -7 -10 -19l-58 -39q-3 -3 -10 -3t-14 6zM479 631q-17 21 2 43q305 326 307 330 q3 3 8 4.5t8.5 0.5t7.5 -2l3 -1l55 -39q7 -5 10 -9t3 -6.5t-2 -3.5l-242 -266q-8 -12 -10 -16q-6 -6 -6 -13q0 -8 6 -14q7 -14 10 -18l221 -287q7 -7 -10 -19l-57 -39q-3 -3 -10.5 -3t-14.5 6z" />
<glyph unicode="&#xad;" d="M164 621v57q4 31 14 31h348q7 0 16 -4t9 -9v-86q0 -5 -8.5 -9.5t-14.5 -4.5h-346q-5 0 -9.5 6t-6.5 12z" />
<glyph unicode="&#xae;" horiz-adv-x="753" d="M152 1079q0 94 65.5 160t159.5 66t159.5 -66t65.5 -160t-65.5 -160.5t-159.5 -66.5t-159.5 66.5t-65.5 160.5zM174 1079q0 -85 59 -145t144 -60t144 60t59 145q0 84 -59.5 143.5t-143.5 59.5t-143.5 -59.5t-59.5 -143.5zM287 963v245q0 6 6 6h119q39 0 59.5 -20t20.5 -49 t-18.5 -49.5t-53.5 -20.5h-58q7 -4 60.5 -48t75.5 -52q2 0 2 -4l-6 -17q-2 -4 -7 -2q-24 8 -89.5 63.5t-73.5 57.5q-1 0 -3 1t-4 1l-4 -2v-108q-2 -7 -4 -7h-16q-6 0 -6 5zM313 1104q0 -4 6 -4h93q27 0 41 13.5t12 33.5q0 19 -14 32t-39 13h-93q-6 0 -6 -4v-84z" />
<glyph unicode="&#xb4;" horiz-adv-x="1187" d="M412 1434q-8 8 4 20l264 229q4 4 8.5 10.5t7.5 11.5l2 5q13 16 25 -2l51 -90q7 -5 3.5 -12t-6 -9t-11.5 -8l-293 -194q-1 -1 -5 -3.5t-6 -3t-6 1t-8 7.5z" />
<glyph unicode="&#xb8;" horiz-adv-x="1292" d="M438 -334q-17 13 4 29q1 1 13.5 8.5t21.5 13.5t25.5 17.5t28.5 22t27 25.5t24.5 28.5t17.5 30.5t10 34l11 84q0 18 18 18l96 -2q13 0 14.5 -6.5t-1.5 -13.5q-15 -89 -23 -115q-15 -43 -50 -82t-67 -59.5t-65 -39t-35 -19.5q-15 -9 -35 2z" />
<glyph unicode="&#xbb;" horiz-adv-x="1026" d="M145 948q-5 5 11 19l57 39q17 8 27 -2l305 -330q21 -21 4 -43l-289 -352q-11 -11 -27 -3l-57 39q-15 10 -10 19l221 287q9 12 12 18q4 8 4 14q0 5 -4 13t-12 16zM535 948q-6 6 10 19l57 39q17 8 27 -2l305 -330q21 -21 4 -43l-289 -352q-11 -11 -26 -3l-58 39 q-15 10 -10 19l221 287q9 12 12 18q5 10 5 14q0 3 -5 13q-4 8 -12 16z" />
<glyph unicode="&#x2c6;" horiz-adv-x="790" d="M133.5 1474.5q-0.5 7.5 5.5 14.5l234 168q16 8 22 8q11 0 23 -8l233 -168q4 -3 5.5 -7t1 -7.5t-1.5 -6.5l-1 -4l-41 -57q-11 -17 -18 -10l-168 131q-3 3 -9.5 6.5t-8.5 5.5q-8 4 -15 4q-2 0 -14 -4q-2 -2 -8.5 -5.5t-10.5 -6.5l-167 -131q-7 -7 -19 10l-39 57 q-3 3 -3.5 10.5z" />
<glyph unicode="&#x2dc;" horiz-adv-x="1191" d="M299 1639.5q1 2.5 3 1.5t9 -7q27 -20 82.5 -32t100.5 -9q40 3 97 28t120 28q27 2 60.5 -4.5t51.5 -12.5t25 -10q5 -3 9.5 -3.5t5.5 -3t3 -13.5l19 -89q1 -8 -2 -10t-9 2q-90 43 -161 33q-49 -6 -109 -26t-123 -23q-34 -1 -79.5 5.5t-59.5 14.5q-21 12 -23 19l-18 98 q-3 11 -2 13.5z" />
<glyph unicode="&#x2000;" horiz-adv-x="871" />
<glyph unicode="&#x2001;" horiz-adv-x="1743" />
<glyph unicode="&#x2002;" horiz-adv-x="871" />
<glyph unicode="&#x2003;" horiz-adv-x="1743" />
<glyph unicode="&#x2004;" horiz-adv-x="581" />
<glyph unicode="&#x2005;" horiz-adv-x="435" />
<glyph unicode="&#x2006;" horiz-adv-x="290" />
<glyph unicode="&#x2007;" horiz-adv-x="290" />
<glyph unicode="&#x2008;" horiz-adv-x="217" />
<glyph unicode="&#x2009;" horiz-adv-x="348" />
<glyph unicode="&#x200a;" horiz-adv-x="96" />
<glyph unicode="&#x2010;" d="M164 621v57q4 31 14 31h348q7 0 16 -4t9 -9v-86q0 -5 -8.5 -9.5t-14.5 -4.5h-346q-5 0 -9.5 6t-6.5 12z" />
<glyph unicode="&#x2011;" d="M164 621v57q4 31 14 31h348q7 0 16 -4t9 -9v-86q0 -5 -8.5 -9.5t-14.5 -4.5h-346q-5 0 -9.5 6t-6.5 12z" />
<glyph unicode="&#x2012;" d="M164 621v57q4 31 14 31h348q7 0 16 -4t9 -9v-86q0 -5 -8.5 -9.5t-14.5 -4.5h-346q-5 0 -9.5 6t-6.5 12z" />
<glyph unicode="&#x2013;" horiz-adv-x="999" d="M164 621v57q4 31 14 31h631q7 0 16 -4t9 -9v-86q0 -6 -8 -10t-15 -4h-629q-5 0 -9.5 6t-6.5 12z" />
<glyph unicode="&#x2014;" horiz-adv-x="1521" d="M164 621v57q4 31 14 31h1153q7 0 16 -4t9 -9v-86q0 -5 -8.5 -9.5t-14.5 -4.5h-1151q-5 0 -9.5 6t-6.5 12z" />
<glyph unicode="&#x2018;" horiz-adv-x="512" d="M134 814q-7 7 1 26l195 403q14 30 20 32q2 2 21 3q16 2 23 -4t1 -23l-108 -397q-7 -27 -11 -31t-20 -6l-96 -8q-19 -2 -26 5z" />
<glyph unicode="&#x2019;" horiz-adv-x="499" d="M143 836l109 395q7 27 11.5 32t19.5 7l96 8q18 2 25 -6t-1 -25l-194 -403q-14 -30 -20 -33q-1 -1 -21 -2q-16 -2 -23 3.5t-2 23.5z" />
<glyph unicode="&#x201a;" horiz-adv-x="501" d="M145 -295q19 129 45 404q1 14 2 22t6 11t7 3h12h72q17 0 23.5 -6.5t2.5 -25.5q-14 -67 -51 -211t-49 -195q-3 -13 -5 -19t-6 -9.5t-5.5 -3.5t-10.5 0.5t-14 0.5q-11 0 -17 1.5t-10 8t-2 19.5z" />
<glyph unicode="&#x201c;" horiz-adv-x="737" d="M134 814q-7 7 1 26l195 403q14 30 20 32q2 2 21 3q16 2 23 -4t1 -23l-108 -397q-7 -27 -11 -31t-20 -6l-96 -8q-19 -2 -26 5zM359 814q-7 7 1 26l195 403q14 30 20 32q2 2 21 3q16 2 23.5 -4t1.5 -23l-109 -397q-7 -27 -11 -31t-20 -6l-96 -8q-19 -2 -26 5z" />
<glyph unicode="&#x201d;" horiz-adv-x="724" d="M143 836l109 395q7 27 11.5 32t19.5 7l96 8q18 2 25 -6t-1 -25l-194 -403q-14 -30 -20 -33q-1 -1 -21 -2q-16 -2 -23 3.5t-2 23.5zM369 836l108 395q7 27 11.5 32t19.5 7l96 8q18 2 25.5 -6t-0.5 -25l-195 -403q-14 -30 -20 -33q-1 -1 -21 -2q-16 -2 -22.5 3.5t-1.5 23.5 z" />
<glyph unicode="&#x201e;" horiz-adv-x="718" d="M145 -295q19 129 45 404q1 14 2 22t6 11t7 3h12h72q17 0 23.5 -6.5t2.5 -25.5q-14 -67 -51 -211t-49 -195q-3 -13 -5 -19t-6 -9.5t-5.5 -3.5t-10.5 0.5t-14 0.5q-11 0 -17 1.5t-10 8t-2 19.5zM362 -295q22 150 46 404q2 19 5 26.5t6 8.5t15 1h72q18 0 24 -6.5t2 -25.5 q-11 -53 -100 -406q-3 -13 -5 -19t-5.5 -9.5t-5.5 -3.5t-10 0.5t-13 0.5q-12 0 -18.5 1.5t-10.5 8t-2 19.5z" />
<glyph unicode="&#x2022;" horiz-adv-x="587" d="M184 711q0 45 33 77.5t78 32.5q44 0 76 -33t32 -77q0 -46 -32 -79.5t-76 -33.5q-46 0 -78.5 33.5t-32.5 79.5z" />
<glyph unicode="&#x2026;" horiz-adv-x="1159" d="M166 82q0 36 26 62t62 26q35 0 60.5 -26.5t25.5 -61.5q0 -37 -25.5 -62.5t-60.5 -25.5q-37 0 -62.5 25.5t-25.5 62.5zM494 82q0 36 26 62t62 26q35 0 60.5 -26.5t25.5 -61.5q0 -37 -25.5 -62.5t-60.5 -25.5q-37 0 -62.5 25.5t-25.5 62.5zM821 82q0 36 26 62t62 26 q35 0 60.5 -26.5t25.5 -61.5q0 -37 -25.5 -62.5t-60.5 -25.5q-37 0 -62.5 25.5t-25.5 62.5z" />
<glyph unicode="&#x202f;" horiz-adv-x="348" />
<glyph unicode="&#x2039;" horiz-adv-x="636" d="M90 631q-17 21 2 43q305 326 307 330q3 3 8 4.5t8.5 0.5t6.5 -2l4 -1l55 -39q7 -5 10 -9t3 -6.5t-2 -3.5l-242 -266q-8 -12 -10 -16q-7 -7 -7 -13q0 -7 7 -14q7 -14 10 -18l221 -287q7 -7 -10 -19l-58 -39q-3 -3 -10 -3t-14 6z" />
<glyph unicode="&#x203a;" horiz-adv-x="636" d="M145 948q-5 5 11 19l57 39q17 8 27 -2l305 -330q21 -21 4 -43l-289 -352q-9 -6 -16.5 -6t-10.5 3l-57 39q-15 10 -10 19l221 287q9 12 12 18q4 8 4 14q0 5 -4 13t-12 16z" />
<glyph unicode="&#x205f;" horiz-adv-x="435" />
<glyph unicode="&#x20ac;" horiz-adv-x="1523" d="M154 461v71q2 31 14 31h154q8 0 12 4t4 12t-0.5 16t-2 19t-1.5 17q0 21 4 49q0 22 -21 22h-145q-5 0 -9.5 6t-6.5 12l-2 7v72q2 30 14 30h172q8 0 10.5 0.5t6 3.5t5.5 11q56 215 229.5 343t422.5 128q68 0 144 -14t124 -33q1 0 5 -1.5t6 -2t5 -2t4.5 -3t2.5 -3.5t1 -5 t-1 -6q-8 -19 -50 -88q-8 -18 -32 -6q-89 43 -209 43q-206 0 -335.5 -96t-176.5 -252q-3 -9 -3 -12.5t1 -4t6 -0.5h4h487q6 0 14.5 -4.5t8.5 -9.5v-98q0 -5 -8 -10t-13 -5h-518q-10 0 -10 -14q-2 -18 -2 -57v-7.5v-9v-10t0.5 -10.5t1.5 -9t2.5 -8.5t3.5 -7t5 -5t7 -1.5h508 q6 0 14.5 -4.5t8.5 -9.5v-98q0 -5 -8 -10t-13 -5h-485h-4q-6 1 -7.5 -1t1.5 -13q58 -155 197 -241.5t325 -86.5q85 0 171 25t146 74q15 12 25.5 9t9.5 -20l-14 -102q-5 -29 -25 -39q-114 -70 -313 -70q-88 0 -171 17t-162 53t-143.5 88t-114 128t-75.5 167q-1 5 -2.5 7.5 t-3.5 3.5l-3 1.5t-4.5 0t-4.5 -0.5h-170q-5 0 -9.5 6t-6.5 12z" />
<glyph unicode="&#x2122;" horiz-adv-x="722" d="M141 1264v16q0 2 2 2h150q4 0 4 -2v-18q0 -2 -4 -2h-60l-2 -3v-215q0 -2 -2 -2h-18q-4 0 -4 4v211q0 5 -4 5h-58q-4 0 -4 4zM334 1042v238l2 2l16 2q2 0 4 -2q47 -61 78 -94q0 -2 2 -2q1 0 2 1t2 1l76 94h6h15q2 0 2 -4v-236q0 -2 -2 -2h-21q-2 0 -2 2v193q-1 2 -2 2 q-4 -4 -14.5 -17t-26 -33t-27.5 -34q-1 0 -3.5 -1t-4.5 -1l-6 2q-23 28 -68 84l-1 1q-1 0 -1 -3v-193q0 -2 -4 -2h-18q-4 0 -4 2z" />
<glyph unicode="&#xe000;" horiz-adv-x="1290" d="M0 0v1290h1290v-1290h-1290z" />
</font>
</defs>
</svg>
